<mxfile host="65bd71144e">
    <diagram id="oJbzSYpveCRk8cRoxvSE" name="Page-1">
        <mxGraphModel dx="1088" dy="1100" grid="1" gridSize="10" guides="1" tooltips="1" connect="1" arrows="1" fold="1" page="1" pageScale="1" pageWidth="4681" pageHeight="3300" math="0" shadow="0">
            <root>
                <mxCell id="0"/>
                <mxCell id="1" parent="0"/>
                <mxCell id="2" value="" style="rounded=0;whiteSpace=wrap;html=1;" vertex="1" parent="1">
                    <mxGeometry x="40" y="40" width="980" height="680" as="geometry"/>
                </mxCell>
                <mxCell id="7" value="" style="shape=image;verticalLabelPosition=bottom;labelBackgroundColor=default;verticalAlign=top;aspect=fixed;imageAspect=0;image=data:image/png,iVBORw0KGgoAAAANSUhEUgAABDYAAAMECAYAAABExqVkAAAMPWlDQ1BJQ0MgUHJvZmlsZQAASImVVwdYU8kWnluSkJDQAghICb0J0gkgJYQWQHoRbIQkQCgxJgQVO7qo4NrFAjZ0VUSxA2JH7CyCvS8WVJR1sWBX3qSArvvK9+b7Zua//5z5z5lz55YBQPMEVyzOR7UAKBAVShLCgxmj0tIZpKeACFBAha0LlycVs+LiogEsA/3fy7vrAJH3V5zkWv8c/69Fmy+Q8gBA4iDO5Et5BRAfAACv4oklhQAQ5bzlpEKxHMMKdCUwQIjny3G2ElfJcaYS71HYJCWwIW4BQI3K5UqyAdBohzyjiJcNNTR6IXYR8YUiADQZEAcUFEzgQ5wBsR20EUMs12dm/qCT/TfNzEFNLjd7ECvXoihqIUKpOJ875f9Mx/8uBfmyAR82sFJzJBEJ8jXDvN3MmxAlx1SIe0SZMbEQ60D8QchX2EOMUnJkEclKe9SYJ2XDnAF9iF343JAoiI0hDhPlx0Sr+MwsYRgHYrhD0MnCQk4SxAYQzxdIQxNVNhslExJUvtD6LAmbpeLPcSUKv3Jf92V5ySyV/uscAUelj2kU5ySlQkyB2KpImBIDsQbEztK8xCiVzYjiHHbMgI1EliCP3wriBIEoPFipjxVlScISVPZlBdKB9WIbc4ScGBXeV5iTFKHMD9bC4yrih2vB2gUiVvKAjkA6KnpgLXxBSKhy7dgzgSg5UaXzQVwYnKCci1PE+XEqe9xCkB8u5y0g9pAWJarm4imFcEMq9fEscWFckjJOvDiXGxmnjAdfAqIBG4QABpDBmgkmgFwgbOtp6IFXypEwwAUSkA0EwEnFDMxIVYyIYJsIisGfEAmAdHBesGJUAIog/3WQVbZOIEsxWqSYkQeeQFwAokA+vJYpZokGvaWAx5AR/sM7F1YejDcfVvn4v+cH2O8MCzLRKkY24JGhOWBJDCWGECOIYUR73AgPwP3waNgGweqGM3GfgXV8tyc8IXQQHhKuEToJt8YLSyQ/RTkSdEL9MFUuMn/MBW4DNT3xYNwfqkNlXB83Ak64B/TDwgOhZ0/IslVxy7PC+En7byv44W6o7MguZJQ8hBxEtvt5poaDhuegijzXP+ZHGWvmYL7ZgyM/+2f/kH0+7KN+tsTmY/uxs9hJ7Dx2BGsADOw41oi1YkfleHB3PVbsrgFvCYp48qCO8B/+Bu6sPJNSl1qXbpcvyrFCwWT5OxqwJ4inSITZOYUMFvwiCBgcEc95GMPNxc0dAPn3Rfn6ehOv+G4g+q3fuTl/AOB/vL+///B3LvI4AHu94eN/6Dtnx4SfDnUAzh3iySRFSg6XNwT4ltCET5ohMAWWwA6uxw14AT8QBEJBJIgFSSANjIPR58B9LgGTwDQwG5SCcrAErARrwQawGWwHu8A+0ACOgJPgDLgI2sE1cAfuni7wAvSCd+AzgiAkhIbQEUPEDLFGHBE3hIkEIKFINJKApCEZSDYiQmTINGQOUo4sQ9Yim5AaZC9yCDmJnEc6kFvIA6QbeY18QjGUiuqiJqgNOhxloiw0Ck1Cx6LZ6ES0GJ2LLkJXo9XoTrQePYleRK+hnegLtA8DmDqmj5ljThgTY2OxWDqWhUmwGVgZVoFVY3VYE7zPV7BOrAf7iBNxOs7AneAOjsCTcR4+EZ+BL8TX4tvxerwFv4I/wHvxbwQawZjgSPAlcAijCNmESYRSQgVhK+Eg4TR8lroI74hEoj7RlugNn8U0Yi5xKnEhcR1xN/EEsYP4iNhHIpEMSY4kf1IsiUsqJJWS1pB2ko6TLpO6SB/U1NXM1NzUwtTS1URqJWoVajvUjqldVnuq9pmsRbYm+5JjyXzyFPJi8hZyE/kSuYv8maJNsaX4U5IouZTZlNWUOsppyl3KG3V1dQt1H/V4daH6LPXV6nvUz6k/UP9I1aE6UNnUMVQZdRF1G/UE9Rb1DY1Gs6EF0dJphbRFtBraKdp92gcNuoazBkeDrzFTo1KjXuOyxktNsqa1JktznGaxZoXmfs1Lmj1aZC0bLbYWV2uGVqXWIa0bWn3adG1X7VjtAu2F2ju0z2s/0yHp2OiE6vB15ups1jml84iO0S3pbDqPPoe+hX6a3qVL1LXV5ejm6pbr7tJt0+3V09Hz0EvRm6xXqXdUr1Mf07fR5+jn6y/W36d/Xf/TEJMhrCGCIQuG1A25POS9wVCDIAOBQZnBboNrBp8MGYahhnmGSw0bDO8Z4UYORvFGk4zWG5026hmqO9RvKG9o2dB9Q28bo8YOxgnGU403G7ca95mYmoSbiE3WmJwy6THVNw0yzTVdYXrMtNuMbhZgJjRbYXbc7DlDj8Fi5DNWM1oYvebG5hHmMvNN5m3mny1sLZItSix2W9yzpFgyLbMsV1g2W/ZamVmNtJpmVWt125pszbTOsV5lfdb6vY2tTarNPJsGm2e2BrYc22LbWtu7djS7QLuJdtV2V+2J9kz7PPt19u0OqIOnQ45DpcMlR9TRy1HouM6xYxhhmM8w0bDqYTecqE4spyKnWqcHzvrO0c4lzg3OL4dbDU8fvnT42eHfXDxd8l22uNxx1XGNdC1xbXJ97ebgxnOrdLvqTnMPc5/p3uj+ysPRQ+Cx3uOmJ91zpOc8z2bPr17eXhKvOq9ubyvvDO8q7xtMXWYccyHznA/BJ9hnps8Rn4++Xr6Fvvt8//Jz8svz2+H3bITtCMGILSMe+Vv4c/03+XcGMAIyAjYGdAaaB3IDqwMfBlkG8YO2Bj1l2bNyWTtZL4NdgiXBB4Pfs33Z09knQrCQ8JCykLZQndDk0LWh98MswrLDasN6wz3Dp4afiCBEREUsjbjBMeHwODWc3kjvyOmRLVHUqMSotVEPox2iJdFNI9GRkSOXj7wbYx0jimmIBbGc2OWx9+Js4ybGHY4nxsfFV8Y/SXBNmJZwNpGeOD5xR+K7pOCkxUl3ku2SZcnNKZopY1JqUt6nhqQuS+0cNXzU9FEX04zShGmN6aT0lPSt6X2jQ0evHN01xnNM6ZjrY23HTh57fpzRuPxxR8drjueO359ByEjN2JHxhRvLreb2ZXIyqzJ7eWzeKt4LfhB/Bb9b4C9YJnia5Z+1LOtZtn/28uzunMCcipweIVu4VvgqNyJ3Q+77vNi8bXn9+an5uwvUCjIKDol0RHmilgmmEyZP6BA7ikvFnRN9J66c2CuJkmyVItKx0sZCXfgj3yqzk/0ie1AUUFRZ9GFSyqT9k7Uniya3TnGYsmDK0+Kw4t+m4lN5U5unmU+bPe3BdNb0TTOQGZkzmmdazpw7s2tW+Kztsymz82b/XuJSsqzk7ZzUOU1zTebOmvvol/Bfaks1SiWlN+b5zdswH58vnN+2wH3BmgXfyvhlF8pdyivKvyzkLbzwq+uvq3/tX5S1qG2x1+L1S4hLREuuLw1cun2Z9rLiZY+Wj1xev4KxomzF25XjV56v8KjYsIqySraqc3X06sY1VmuWrPmyNmfttcrgyt1VxlULqt6v46+7vD5ofd0Gkw3lGz5tFG68uSl8U321TXXFZuLmos1PtqRsOfsb87earUZby7d+3Sba1rk9YXtLjXdNzQ7jHYtr0VpZbffOMTvbd4Xsaqxzqtu0W393+R6wR7bn+d6Mvdf3Re1r3s/cX3fA+kDVQfrBsnqkfkp9b0NOQ2djWmPHochDzU1+TQcPOx/edsT8SOVRvaOLj1GOzT3Wf7z4eN8J8Ymek9knHzWPb75zatSpqy3xLW2no06fOxN25tRZ1tnj5/zPHTnve/7QBeaFhoteF+tbPVsP/u75+8E2r7b6S96XGtt92ps6RnQcuxx4+eSVkCtnrnKuXrwWc63jevL1mzfG3Oi8yb/57Fb+rVe3i25/vjPrLuFu2T2texX3je9X/2H/x+5Or86jD0IetD5MfHjnEe/Ri8fSx1+65j6hPal4ava05pnbsyPdYd3tz0c/73ohfvG5p/RP7T+rXtq9PPBX0F+tvaN6u15JXvW/XvjG8M22tx5vm/vi+u6/K3j3+X3ZB8MP2z8yP579lPrp6edJX0hfVn+1/9r0Lerb3f6C/n4xV8JV/ApgsKJZWQC83gYALQ0AOjyfUUYrz3+KgijPrAoE/hNWnhEVxQuAOvj/Ht8D/25uALBnCzx+QX3NMQDE0QBI8gGou/tgHTirKc6V8kKE54CNsV8zCzLBvynKM+cPcf/cA7mqB/i5/xf3c3xT6xiurwAAAGxlWElmTU0AKgAAAAgABAEaAAUAAAABAAAAPgEbAAUAAAABAAAARgEoAAMAAAABAAIAAIdpAAQAAAABAAAATgAAAAAAAACQAAAAAQAAAJAAAAABAAKgAgAEAAAAAQAABDagAwAEAAAAAQAAAwQAAAAAz7SJ7AAAAAlwSFlzAAAWJQAAFiUBSVIk8AAAQABJREFUeAHs3Qe8HFXdP+CTHkLoHZIQepdA6E2K2EBFQFGKgFTxBUSKoCBFlC4KghRFpfoHBVHBhqAiVULvHUJC76Gk/+e3Yfbu7r035Waz987ucz6fy+7MTjnnOfP67n5z5kyvqVlJCgECBAgQIECAAAECBAgQIECggAK9C1hnVSZAgAABAgQIECBAgAABAgQIlAQEGy4EAgQIECBAgAABAgQIECBAoLACgo3Cdp2KEyBAgAABAgQIECBAgAABAoIN1wABAgQIECBAgAABAgQIECBQWAHBRmG7TsUJECBAgAABAgQIECBAgAABwYZrgAABAgQIECBAgAABAgQIECisgGCjsF2n4gQIECBAgAABAgQIECBAgIBgwzVAgAABAgQIECBAgAABAgQIFFZAsFHYrlNxAgQIECBAgAABAgQIECBAQLDhGiBAgAABAgQIECBAgAABAgQKKyDYKGzXqTgBAgQIECBAgAABAgQIECAg2HANECBAgAABAgQIECBAgAABAoUVEGwUtutUnAABAgQIECBAgAABAgQIEBBsuAYIECBAgAABAgQIECBAgACBwgoINgrbdSpOgAABAgQIECBAgAABAgQICDZcAwQIECBAgAABAgQIECBAgEBhBQQbhe06FSdAgAABAgQIECBAgAABAgQEG64BAgQIECBAgAABAgQIECBAoLACgo3Cdp2KEyBAgAABAgQIECBAgAABAoIN1wABAgQIECBAgAABAgQIECBQWAHBRmG7TsUJECBAgAABAgQIECBAgAABwYZrgAABAgQIECBAgAABAgQIECisgGCjsF2n4gQIECBAgAABAgQIECBAgIBgwzVAgAABAgQIECBAgAABAgQIFFZAsFHYrlNxAgQIECBAgAABAgQIECBAQLDhGiBAgAABAgQIECBAgAABAgQKKyDYKGzXqTgBAgQIECBAgAABAgQIECAg2HANECBAgAABAgQIECBAgAABAoUVEGwUtutUnAABAgQIECBAgAABAgQIEBBsuAYIECBAgAABAgQIECBAgACBwgoINgrbdSpOgAABAgQIECBAgAABAgQICDZcAwQIECBAgAABAgQIECBAgEBhBQQbhe06FSdAgAABAgQIECBAgAABAgQEG64BAgQIECBAgAABAgQIECBAoLACgo3Cdp2KEyBAgAABAgQIECBAgAABAoIN1wABAgQIECBAgAABAgQIECBQWAHBRmG7TsUJECBAgAABAgQIECBAgAABwYZrgAABAgQIECBAgAABAgQIECisgGCjsF2n4gQIECBAgAABAgQIECBAgIBgwzVAgAABAgQIECBAgAABAgQIFFZAsFHYrlNxAgQIECBAgAABAgQIECBAQLDhGiBAgAABAgQIECBAgAABAgQKKyDYKGzXqTgBAgQIECBAgAABAgQIECAg2HANECBAgAABAgQIECBAgAABAoUVEGwUtutUnAABAgQIECBAgAABAgQIEBBsuAYIECBAgAABAgQIECBAgACBwgoINgrbdSpOgAABAgQIECBAgAABAgQICDZcAwQIECBAgAABAgQIECBAgEBhBQQbhe06FSdAgAABAgQIECBAgAABAgQEG64BAgQIECBAgAABAgQIECBAoLACgo3Cdp2KEyBAgAABAgQIECBAgAABAoIN1wABAgQIECBAgAABAgQIECBQWAHBRmG7TsUJECBAgAABAgQIECBAgAABwYZrgAABAgQIECBAgAABAgQIECisgGCjsF2n4gQIECBAgAABAgQIECBAgIBgwzVAgAABAgQIECBAgAABAgQIFFZAsFHYrlNxAgQIECBAgAABAgQIECBAQLDhGiBAgAABAgQIECBAgAABAgQKKyDYKGzXqTgBAgQIECBAgAABAgQIECAg2HANECBAgAABAgQIECBAgAABAoUVEGwUtutUnAABAgQIECBAgAABAgQIEBBsuAYIECBAgAABAgQIECBAgACBwgoINgrbdSpOgAABAgQIECBAgAABAgQICDZcAwQIECBAgAABAgQIECBAgEBhBQQbhe06FSdAgAABAgQIECBAgAABAgQEG64BAgQIECBAgAABAgQIECBAoLACgo3Cdp2KEyBAgAABAgQIECBAgAABAoIN1wABAgQIECBAgAABAgQIECBQWAHBRmG7TsUJECBAgAABAgQIECBAgAABwYZrgAABAgQIECBAgAABAgQIECisgGCjsF2n4gQIECBAgAABAgQIECBAgIBgwzVAgAABAgQIECBAgAABAgQIFFZAsFHYrlNxAgQIECBAgAABAgQIECBAQLDhGiBAgAABAgQIECBAgAABAgQKKyDYKGzXqTgBAgQIECBAgAABAgQIECAg2HANECBAgAABAgQIECBAgAABAoUVEGwUtutUnAABAgQIECBAgAABAgQIEBBsuAYIECBAgAABAgQIECBAgACBwgoINgrbdSpOgAABAgQIECBAgAABAgQICDZcAwQIECBAgAABAgQIECBAgEBhBQQbhe06FSdAgAABAgQIECBAgAABAgQEG64BAgQIECBAgAABAgQIECBAoLACgo3Cdp2KEyBAgAABAgQIECBAgAABAoIN1wABAgQIECBAgAABAgQIECBQWAHBRmG7TsUJECBAgAABAgQIECBAgAABwYZrgAABAgQIECBAgAABAgQIECisgGCjsF2n4gQIECBAgAABAgQIECBAgIBgwzVAgAABAgQIECBAgAABAgQIFFZAsFHYrlNxAgQIECBAgAABAgQIECBAQLDhGiBAgAABAgQIECBAgAABAgQKKyDYKGzXqTgBAgQIECBAgAABAgQIECAg2HANECBAgAABAgQIECBAgAABAoUVEGwUtutUnAABAgQIECBAgAABAgQIEBBsuAYIECBAgAABAgQIECBAgACBwgoINgrbdSpOgAABAgQIECBAgAABAgQICDZcAwQIECBAgAABAgQIECBAgEBhBQQbhe06FSdAgAABAgQIECBAgAABAgQEG64BAgQIECBAgAABAgQIECBAoLACgo3Cdp2KEyBAgAABAgQIECBAgAABAoIN1wABAgQIECBAgAABAgQIECBQWAHBRmG7TsUJECBAgAABAgQIECBAgAABwYZrgAABAgQIECBAgAABAgQIECisgGCjsF2n4gQIECBAgAABAgQIECBAgIBgwzVAgAABAgQIECBAgAABAgQIFFZAsFHYrlNxAgQIECBAgAABAgQIECBAQLDhGiBAgAABAgQIECBAgAABAgQKKyDYKGzXqTgBAgQIECBAgAABAgQIECAg2HANECBAgAABAgQIECBAgAABAoUVEGwUtutUnAABAgQIECBAgAABAgQIEBBsuAYIECBAgAABAgQIECBAgACBwgoINgrbdSpOgAABAgQIECBAgAABAgQICDZcAwQIECBAgAABAgQIECBAgEBhBQQbhe06FSdAgAABAgQIECBAgAABAgQEG64BAgQIECBAgAABAgQIECBAoLACgo3Cdp2KEyBAgAABAgQIECBAgAABAoIN1wABAgQIECBAgAABAgQIECBQWAHBRmG7TsUJECBAgAABAgQIECBAgAABwYZrgAABAgQIECBAgAABAgQIECisgGCjsF2n4gQIECBAgAABAgQIECBAgIBgwzVAgAABAgQIECBAgAABAgQIFFZAsFHYrlNxAgQIECBAgAABAgQIECBAQLDhGiBAgAABAgQIECBAgAABAgQKKyDYKGzXqTgBAgQIECBAgAABAgQIECAg2HANECBAgAABAgQIECBAgAABAoUVEGwUtutUnAABAgQIECBAgAABAgQIEBBsuAYIECBAgAABAgQIECBAgACBwgoINgrbdSpOgAABAgQIECBAgAABAgQICDZcAwQIECBAgAABAgQIECBAgEBhBQQbhe06FSdAgAABAgQIECBAgAABAgQEG64BAgQIECBAgAABAgQIECBAoLACgo3Cdp2KEyBAgAABAgQIECBAgAABAoIN1wABAgQIECBAgAABAgQIECBQWAHBRmG7TsUJECBAgAABAgQIECBAgAABwYZrgAABAgQIECBAgAABAgQIECisgGCjsF2n4gQIECBAgAABAgQIECBAgIBgwzVAgAABAgQIECBAgAABAgQIFFZAsFHYrlNxAgQIECBAgAABAgQIECBAQLDhGiBAgAABAgQIECBAgAABAgQKKyDYKGzXqTgBAgQIECBAgAABAgQIECAg2HANECBAgAABAgQIECBAgAABAoUVEGwUtutUnAABAgQIECBAgAABAgQIEBBsuAYIECBAgAABAgQIECBAgACBwgoINgrbdSpOgAABAgQIECBAgAABAgQICDZcAwQIECBAgAABAgQIECBAgEBhBQQbhe06FSdAgAABAgQIECBAgAABAgQEG64BAgQIECBAgAABAgQIECBAoLACgo3Cdp2Kt6rA4088na646o/phTEvtiqBdhMgQIAAAQIECBAgQKAs0GtqVspL3hAouMCH48enWbmke/fqnQYM6F+YVt//4KNp/4OOKtf32it/kRZZeKHS8iuvvp6222nv8mdXX3FBWnyxRcrL3f3mvfffT1tvu0u5GhdfeGZafrnh5eWZfXP+Ly9Lv7nsd6XNN99sw/Sj446Y2V1tR4AAAQIECBAgQIBAEwr0bcI2aVILC2y7w57p/fc/mGmBBeafL1139a9nevvu3vC2O0ZVVeGuu+9Pn/nkFqV1kydPrvqsdrnqw25YmDqlOkOdPGVKl2pRuV9Pa2OXGmQnAgQIECBAgAABAgRmS8CtKLPFZ2cCjRXYZKN1q0643sgRVcsWCBAgQIAAAQIECBAg0GoCRmy0Wo+3WHsHDZprui1eaMEFpvt5T/twtVVWTJf/6uz0wEOPpvXWGZEWWqhY9e9pnupDgAABAgQIECBAgEDxBQQbxe9DLehE4NCD9k07bPeZTj4t7urhSw9J8acQIECAAAECBAgQIECAQEqCDVcBgQqBd98dl9548+3SmkGDBpYn5nz5lVfTvfc9nPr06ZOWXWZY6a9itzTuvffTE08+k0a/MDYtvNCCaZWVl08xf8eMyvjxE9LoMWPT86PHpveyYyw7fFgaPnxImnvQoA53nThpUho79uXSZ716pTRs6FIdbjc7K2e1TrXneubZ5zOHF1NMFjpkqSVKVp21p3bffDk84+kv4T547rnT0sOWmqm2dtZ/Y198ORvl8ljp8JttvF6aa66B+alKrxMnTkwPP/pkeumlV1JMQBsTskY/z+zkq2+99U566pnnSv2/6CILl4KnxRdfNPWOTppOmTRpcrbPmPTU08+n8RMmpGWGDy21dVa9pnMKHxEgQIAAAQIECBBoegHBRtN3sQbOisBV11yffvHrK0q7jFxrjXTsd7+VDj7suPTMc6OrDhNP4zjy0APSvPMMTn+87h/prJ//qt2kpbH/qSd+t92P6DhQ/Hi+8KLLS49trTrwRwurrbpi+uGxR6RFF5n2xJN8myefejbt9Y3D88V0w58vTzO63aa88QzedLVO+WEjzPjhqWeleHJLZYn67b/3rulTW21WubrT95f+9pr060uvaue5/rprpW8fuE+n+8UHtf13+Lf2SwcddmyKJ8bkJW7lqRzxcs2f/pZ+8asr0ptvTQu08u3iddMsBIl+7iykevLpZ9OxP/hxu+sj9o12H33EgSmuldoSk55emJ3z4st/X/tRafnjm2yQjjzsgDTfvPN0+LmVBAgQIECAAAECBAi0CZg8tM3COwJVAvFD/6hjT+nwR+u//nNbOvmMc9Of//LP0mtHT2IZdc8D6Yijf5RilEVliR/Qe+zz7U5Djdj2oYcfT3vud2iKH86NKLNbpxhhcfh3T2wXakTdw+bHZ12YLskCixmVCInOveDidqFG7HfH/+4pPer2tdfemNFhSp+PG/deOur7p1SFGrU7/un6G9JpZ57XYagR2958y53psKNOTB98+GHtrummf9+avrb3IR1eH7FxtPu7x52azr3wkqp9Y/3Bhx/XaagRG//7v7ennfc4ML0w5sWqfS0QIECAAAECBAgQINBewIiN9ibWECgJRLgQZfllh6fNNlkvvfX2u+mv//hX+Ud3hBvxF2XtEaunGKHx+utvpr/e8O/yNhFuPPrYk2mN1VYubRf/ueaPf0vPZ7es5CX+dX7EmqumuC0hHud6970Plj6KsCH+Rf+Eow/NN51jr7NTpylTp6YfnPzTqjbFaIUY7TDv4MHpltvvSnEryKVXXD3d+od3hEWVZaUVlk3rjlwzPZ3d3nLr7aNKAUT0wcyUx7JbWfISfRi3B8XtPoMHT7vN5/Y770knnX5OvkkaNmTJtNUWm2S3oSyY7r3/4fT3f/6n9NkjWf/FqIyTTvhO6VakfIdzsgAmLzGy5hv7fC0NWXLxUhj1l7/fVA55ot1f3n6b0i1KsX145H0cy9t/4TNpy49vlCZMmJjuue/BdMlHTtH/V11zXTrk//aOzRQCBAgQIECAAAECBDoREGx0AmN18QX+/Jcb0uNPtv247ahF235mq6rQoXabCB1OPPaw8g/az3/2E2mPbCRFZdl9lx3TfnvtUl61TXbMyttF4gd2HmxECHD5lX8ob/u1nXco3aaRr9hlp+3S6T85P139x7+WVsWP+dhnRnM15Pt35XV26xQjKWJkQ17iNppzfnxi6t+/X2nVIQfuXbrt4leXXJlv0uHr6T89v2r9KT84qhSO5CvjdpKd9zywHBrl66f3GreQnHPmiVW3nsT2H3zwYfr2kSeUd11lpeXTOT85MQ0cMKC0brvPfSptuN7a6fiTflJa/u9t/0v/uPHm9OmtNy8tx0iaCGvycvYZP0hDhyxRWoz2b7X5xqXrJN/mxn/dmr68w7alz2/6KAyLhTjeYQfvW1of/9lgvbXSYosunE7/6QWlddf99cZ00Df2LF9/5Q29IUCAAAECBAgQIECgLCDYKFN402wCEShU/qt9R+372OqrlEOHjj7/zqHfqPpRuWI2giDmeogf81FiZMLee3ylatf4kRx/8S/9UWJS0bxEQPG3a9tuTYjJSGvL57bZuhxsxG0LY8e+VJqEs3a7ei3Pbp1iks+8hMeJ3z+8HGrk6/fafafs9prH0p2j7stXVb3G7TqVfbXrV7evCjVi4xgVcdoPv5e+ecjRVftOb+HMU77fLtSI7fP+y/eNuVDyUCNf96mtP57uuOve0iidWHfDTf8tBxtvvPFWvlnpNebMqCyDB8+dfnfZeZWryu9ffvnV8vspU6aU3+dvYgRH/CkECBAgQIAAAQIECMycgDk2Zs7JVi0oELcmzD/fvO1avszSQ8vrYiRGR+HEcssuXd5m4sTqOTZi+/yvvFH2Jp7M8dbb76SpNT924yklc7rk9alty8zUqTK4iVEOMeKgtvTu3Tt95lNb1q4uLz///Jjy+3jz6U98vGo5X1hrzdXaTaiaf1b7GiHLCssvU7u6tFw5wWls16dvn5J9+Ff+xVNd8hK3p+RlpRWXy9+WXvf+5hHpoouvLD3JpTbkqNowWxiRtSEvcbvLoUf+oHRLU5xXIUCAAAECBAgQIEBg1gWM2Jh1M3sUROArO34+fXKrTadb26WyORE6K4vUPJGko+1qHxuab9Ov7/T/T+vtd95NN2aTT96dzcHxwEOPTneCy/yYc/q1q3V69PGnylWrDHTKKz96s8zSQ2pXlZefeXZ0+X28yW/rqFr50cIqK60wU14rZ+FDr04et/rqa21PSYlRMZ/94u4dnapqXWwX86D0zUKQeFrJl7J5M666+rrSNvFZPE0nf6JOBDyf2HKTbNTJ+tnjaqsf3fv5z26drv3z38u31Nx2590p/qJEmLbxRutm1+1mKeYXUQgQIECAAAECBAgQmLHA9H99zXh/WxDosQIRWqyc3RLS00oEGUcec3KnT+Lojvp2tU4xP0c+j0TUe5GFqx9PW9mW6QVFL73SdntGzIvRr9+0+Tkq98/fL77YIvnb6b52FmrETu++O266+3b2YTwpZ3DfaUHFt765V1pwgflLk31GsFFZKsOKY4/6VorbWvKy9LCl0oU/Ozn99JyL2t2aE5PKPn/ltemK7G/NNVbNHhd8VJone6SwQoAAAQIECBAgQIBA5wKCjc5tfEKg7gLxg3q/A4+qOm5MIDk8G80QP+jjX/cnT56Svn/iGVXbzMmF2alTzM8Rt+Y889y0ERdjsvlAOitjx7ZNtlm7TeUIjXgaSEzu2dlomOdHV9+2UnusmVmed755qjb70fHfqVrOF2IOjInZ00oGDByQjf7I5lSZa2D+UWk0SEwcu8tOX0z/u/u+dFc2f0jcrpLPrZJvGBOQRjix0QYj81VpmeHD0k9OOy69lM23cfOtd6b7sv1uz+ZtqQxI7nvg4XTQYcemX53fuGuhXEFvCBAgQIAAAQIECBRIQLBRoM5S1eILjProUa55Sy467/QUt0xUlnr8cK883ozez26d4jGqebDx5FPPdnq6fJuONlhumbY5SeLz57LwotYl36/y1pd83ay+Vo4sWXKJxdLmm24wq4cobx+3psStJ/EX5eVXXkvxRJ5f/ub/lbe56T+3VgUb+Qcx+uRLX9ym9Bdzc8QjaC+6+P+Vw5GYUDXCoundMpUfyysBAgQIECBAgACBVhUweWir9rx2d4vA/Q88Uj5vzKfQ0Y/3zp4cUt6xzm9mt06VE3TGY1E7Ch5iBEbcXtFZiXChslx6xdVpanabS235y99vqsstPCNHrFE+dNxKE49v7ai8/vqb6X/ZSIz4q3xqS4QNj2ZPvYm/F196pWrXmDx1r92/krb8+Ebl9Y89Pu3JMROy0R/5fvEaT4PJS0zcuvGG66TvHXFgvqr0Or1AqGpDCwQIECBAgAABAgRaVECw0aIdr9ndIzB06JLlE8d8CpWPSo0P7rr7/vTjsy4sb9OIN7Nbp1VXXqGqmkcec1J6YcyL5XXjxr2XTjrjnPKojvIHFW/iqSnxGN28xMSqF1/++9KTYmJdhBx3Z6NdfnDyWfkms/W6ztofKz2qNz/IwYcd125C0phg9JDvnJAOPvy40l+MpMjLlVf/OX39G4eX/nbb+1tp9Att7Y1t4kk2lbfl5POCvPPuu+X9Yv+zz/1Vfsjy63PPv1B+H28WXmjBqmULBAgQIECAAAECBAhUC7gVpdrDUhMJnHHWBSn+pldipMDvLjtvepvU9bORI1avOt4e+x2aPTljvbT0sCHpkUefSKOyp6Q0usxuneKRt7t+dfsUoyyivPLq6+nLux1QesLH3NmcIbVzTnTWviMO2T9FSJDPM3H+Ly9L8ReTaMbtOTH3Rr1K//790s/OOKEUMsQx49jb7bR3GrnWGmmVLKh5JbudJB7FWlm+9tUdyovbfe5TVU9E2f+go9Im2dNMVltlxRRPl7nuL/9MEVzl5dOf3Lz0NkKKeFrKDTf+t7T8uz9cn55+9vkUQUvMsfJwdg386fob8t1K85essNzw8rI3BAgQIECAAAECBAi0FzBio72JNS0kELdINLIMG7pUisfQVpabb7mzFArkocYuO21X+fEcf1+POu339Z2rRlxEpeOHfWWoceShB0y3LUssvmj2FJDvttsmJtHMQ414BOqO23223TZdWRFPzPnJqcdW7Rp9EAFNbahxwtGHptVWXbG8bUyYum/W5rxE/SKQOPmMc9PPL7ykKtQ4YN+vpS022zDfNO2zx86lwCJfESNRLrjo8nTKj39eFWosv+zwdPIPjkpxi4pCgAABAgQIECBAgEDnAoKNzm180oICffq0/Z9En+z2iI5KTBaZl8626VWxb+X2sd9BB+yZDj1o31Q7r0T8i/0xRx6U4kkblaV3RZ3ilo3K0qt39qiOj0rtD+DabfPtOnqdnTrF8eLcJxz97bTTDp9rd/gIAc46/fi01RYbV33Wkd3a2YiWM04+JsWP+toSgc/Z2SiLQYPmKn/Uu1e1x8z0X3nn7M1664wo1S1GanRUttp843TZr84qjbKo/XyPXb+UPbb1lNKIktrPoo5xzPh81698sfQElXybeAJMTBq7WzbKZdFF2j8eN+Zeic9+ce6pqfJpMfn+XgkQIECAAAECBAgQqBbold273n6GvuptLBEgMIcE3ske//rKq6+l+eebNy204AJVP4Dn0ClneNjZrVNMkBlPBhk/YXz2w33hNG/2qNOulBgF8cYbb6X+/ftnIdCic3zkQjz29uWsL6L+ETJF6FAbFnXWjinZ/4y+mu37elbfhRacv9TuXvF82JkoMWqoNB9HtvmQpZZIAwcMmIm9bEKAAAECBAgQIECAQC4g2MglvBIgQIAAAQIECBAgQIAAAQKFE6gex1246qswAQIECBAgQIAAAQIECBAg0MoCgo1W7n1tJ0CAAAECBAgQIECAAAECBRcQbBS8A1WfAAECBAgQIECAAAECBAi0soBgo5V7X9sJECBAgAABAgQIECBAgEDBBQQbBe9A1SdAgAABAgQIECBAgAABAq0sINho5d7XdgIECBAgQIAAAQIECBAgUHABwUbBO1D1CRAgQIAAAQIECBAgQIBAKwsINlq597WdAAECBAgQIECAAAECBAgUXECwUfAOVH0CBAgQIECAAAECBAgQINDKAoKNVu59bSdAgAABAgQIECBAgAABAgUXEGwUvANVnwABAgQIECBAgAABAgQItLKAYKOVe1/bCRAgQIAAAQIECBAgQIBAwQUEGwXvQNUnQIAAAQIECBAgQIAAAQKtLCDYaOXe13YCBAgQIECAAAECBAgQIFBwAcFGwTtQ9QkQIECAAAECBAgQIECAQCsLCDZaufe1nQABAgQIECBAgAABAgQIFFygb8Hrr/oEpitwzc2vpJvufTM98PS49MpbE9LkyVOnu70PCRAgQIAAAQIECBDoPoE+fXqlRefvn9ZYdnDaYsQC6YubLtp9lXHmwgj0mpqVwtRWRQnMpEAEGmddPTq9+Pr4mdzDZgQIECBAgAABAgQI9DSBJRYakA7afqiAo6d1TA+rj2Cjh3WI6sy+wImXPJMu/ceLs38gRyBAgAABAgQIECBAoEcI7Lr1Euno3ZbpEXVRiZ4nYI6NntcnajQbAkKN2cCzKwECBAgQIECAAIEeKhD/cBnf9RUCHQmYY6MjFesKKRC3n3Q0UmOvbZZKn11/4bTikLlSv76yvEJ2rkoTIECAAAECBAi0hMDESVPS4y98kK6/47X0y+vGVLU5vuuvNnxut6VUqVgIAbeiuA6aRmCLQ0ZVzakxbLGB6cxvrlT6H7+maaSGECBAgAABAgQIEGgRgYeefS8dcs5j6fmXPyy3OObcuOnMkeVlbwiEgH++dh00hUCM1qidKFSo0RRdqxEECBAgQIAAAQItKhCjM+I7fWWJ7/zx3V8hUCkg2KjU8L6wAvFI18oSt5/E/xAqBAgQIECAAAECBAgUVyC+08d3+8pS+92/8jPvW1NAsNGa/d50rX7g6XFVbYo5NRQCBAgQIECAAAECBIovUPvdvva7f/FbqAWzKyDYmF1B+/cIgVfemlBVj5goVCFAgAABAgQIECBAoPgCtd/ta7/7F7+FWjC7AoKN2RW0f48QmDx5alU9PP2kisMCAQIECBAgQIAAgcIK1H63r/3uX9iGqXjdBAQbdaN0IAIECBAgQIAAAQIECBAgQKDRAoKNRos7HwECBAgQIECAAAECBAgQIFA3AcFG3SgdiAABAgQIECBAgAABAgQIEGi0gGCj0eLOR4AAAQIECBAgQIAAAQIECNRNQLBRN0oHIkCAAAECBAgQIECAAAECBBotINhotLjzESBAgAABAgQIECBAgAABAnUTEGzUjdKBCBAgQIAAAQIECBAgQIAAgUYLCDYaLe58BAgQIECAAAECBAgQIECAQN0EBBt1o3QgAgQIECBAgAABAgQIECBAoNECgo1GizsfAQIECBAgQIAAAQIECBAgUDcBwUbdKB2IAAECBAgQIECAAAECBAgQaLSAYKPR4s5HgAABAgQIECBAgAABAgQI1E1AsFE3SgciQIAAAQIECBAgQIAAAQIEGi0g2Gi0uPMRIECAAAECBAgQIECAAAECdRMQbNSN0oEIECBAgAABAgQIECBAgACBRgsINhot7nwECBAgQIAAAQIECBAgQIBA3QQEG3WjdCACBAgQIECAAAECBAgQIECg0QKCjUaLOx8BAgQIECBAgAABAgQIECBQNwHBRt0oHYgAAQIECBAgQIAAAQIECBBotIBgo9HizkeAAAECBAgQIECAAAECBAjUTUCwUTdKByJAgAABAgQIECBAgAABAgQaLSDYaLS48xEgQIAAAQIECBAgQIAAAQJ1ExBs1I3SgQgQIECAAAECBAgQIECAAIFGCwg2Gi3ufAQIECBAgAABAgQIECBAgEDdBAQbdaN0IAIECBAgQIAAAQIECBAgQKDRAoKNRos7HwECBAgQIECAAAECBAgQIFA3AcFG3SgdiAABAgQIECBAgAABAgQIEGi0gGCj0eLOR4AAAQIECBAgQIAAAQIECNRNQLBRN0oHIkCAAAECBAgQIECAAAECBBotINhotLjzESBAgAABAgQIECBAgAABAnUTEGzUjdKBCBAgQIAAAQIECBAgQIAAgUYLCDYaLe58BAgQIECAAAECBAgQIECAQN0EBBt1o3QgAgQIECBAgAABAgQIECBAoNECgo1GizsfAQIECBAgQIAAAQIECBAgUDcBwUbdKB2IAAECBAgQIECAAAECBAgQaLSAYKPR4s5HgAABAgQIECBAgAABAgQI1E1AsFE3SgciQIAAAQIECBAgQIAAAQIEGi0g2Gi0uPMRIECAAAECBAgQIECAAAECdRMQbNSN0oEIECBAgAABAgQIECBAgACBRgsINhot7nwECBAgQIAAAQIECBAgQIBA3QQEG3WjdCACBAgQIECAAAECBAgQIECg0QKCjUaLOx8BAgQIECBAgAABAgQIECBQNwHBRt0oHYgAAQIECBAgQIAAAQIECBBotIBgo9HizkeAAAECBAgQIECAAAECBAjUTUCwUTdKByJAgAABAgQIECBAgAABAgQaLSDYaLS48xEgQIAAAQIECBAgQIAAAQJ1ExBs1I3SgQgQIECAAAECBAgQIECAAIFGCwg2Gi3ufAQIECBAgAABAgQIECBAgEDdBAQbdaN0IAIECBAgQIAAAQIECBAgQKDRAoKNRos7HwECBAgQIECAAAECBAgQIFA3AcFG3SgdiAABAgQIECBAgAABAgQIEGi0gGCj0eLOR4AAAQIECBAgQIAAAQIECNRNQLBRN0oHIkCAAAECBAgQIECAAAECBBotINhotLjzESBAgAABAgQIECBAgAABAnUTEGzUjdKBCBAgQIAAAQIECBAgQIAAgUYLCDYaLe58c0SgT59eVcedOGlK1bIFAgQIECBAgAABAgSKKVD73b72u38xW6XW9RQQbNRT07G6TWDR+ftXnfvxFz6oWrZAgAABAgQIECBAgEAxBWq/29d+9y9mq9S6ngKCjXpqOla3Cayx7OCqc19/x2tVyxYIECBAgAABAgQIECimQO13+9rv/sVslVrXU0CwUU9Nx+o2gS1GLFB17l9eNyY99Ox7VessECBAgAABAgQIECBQLIH4Th/f7StL7Xf/ys+8b00BwUZr9nvTtfqLmy6allhoQFW7DjnnMeFGlYgFAgQIECBAgAABAsURiFAjvtNXlvjOH9/9FQKVAr2mZqVyhfcEiipwzc2vpKMufLJd9ffaZqn02fUXTisOmSv16yvLawdkBQECBAgQIECAAIEeIhAThcacGnH7Se1IjajiSfssL9joIX3Vk6oh2OhJvaEusy1w4iXPpEv/8eJsH8cBCBAgQIAAAQIECBDoWQK7br1EOnq3ZXpWpdSmRwj45+se0Q0qUS+B+B+6+B88hQABAgQIECBAgACB5hEQajRPX86JlhixMSdUHbPbBeK2lLOuHp1efH18t9dFBQgQIECAAAECBAgQ6JpAzKlx0PZD3X7SNb6W2Uuw0TJd3ZoNjYDjpnvfTA88PS698taENHmyKWVa80rQagIECBAgQIAAgSII9OnTKy06f/8Uj3SNp5+YKLQIvdb9dRRsdH8fqAEBAgQIECBAgAABAgQIECDQRQFzbHQRzm4ECBAgQIAAAQIECBAgQIBA9wsINrq/D9SAAAECBAgQIECAAAECBAgQ6KKAYKOLcHYjQIAAAQIECBAgQIAAAQIEul9AsNH9faAGBAgQIECAAAECBAgQIECAQBcFBBtdhLMbAQIECBAgQIAAAQIECBAg0P0Cgo3u7wM1IECAAAECBAgQIECAAAECBLooINjoIpzdCBAgQIAAAQIECBAgQIAAge4XEGx0fx+oAQECBAgQIECAAAECBAgQINBFAcFGF+HsRoAAAQIECBAgQIAAAQIECHS/gGCj+/tADQgQIECAAAECBAgQIECAAIEuCgg2ughnNwIECBAgQIAAAQIECBAgQKD7BQQb3d8HakCAAAECBAgQIECAAAECBAh0UUCw0UU4uxEgQIAAAQIECBAgQIAAAQLdLyDY6P4+UAMCBAgQIECAAAECBAgQIECgiwKCjS7C2Y0AAQIECBAgQIAAAQIECBDofgHBRvf3gRoQIECAAAECBAgQIECAAAECXRQQbHQRzm4ECBAgQIAAAQIECBAgQIBA9wsINrq/D9SAAAECBAgQIECAAAECBAgQ6KKAYKOLcHYjQIAAAQIECBAgQIAAAQIEul9AsNH9faAGBAgQIECAAAECBAgQIECAQBcFBBtdhLMbAQIECBAgQIAAAQIECBAg0P0Cgo3u7wM1IECAAAECBAgQIECAAAECBLooINjoIpzdCBAgQIAAAQIECBAgQIAAge4XEGx0fx+oAQECBAgQIECAAAECBAgQINBFAcFGF+HsRoAAAQIECBAgQIAAAQIECHS/gGCj+/tADQgQIECAAAECBAgQIECAAIEuCgg2ughnNwIECBAgQIAAAQIECBAgQKD7BQQb3d8HakCAAAECBAgQIECAAAECBAh0UUCw0UU4uxEgQIAAAQIECBAgQIAAAQLdLyDY6P4+UAMCBAgQIECAAAECBAgQIECgiwKCjS7C2Y0AAQIECBAgQIAAAQIECBDofgHBRvf3gRoQIECAAAECBAgQIECAAAECXRQQbHQRzm4ECBAgQIAAAQIECBAgQIBA9wsINrq/D9SAAAECBAgQIECAAAECBAgQ6KKAYKOLcHYjQIAAAQIECBAgQIAAAQIEul9AsNH9faAGBAgQIECAAAECBAgQIECAQBcFBBtdhLMbAQIECBAgQIAAAQIECBAg0P0Cgo3u7wM1IECAAAECBAgQIECAAAECBLooINjoIpzdCBAgQIAAAQIECBAgQIAAge4XEGx0fx+oAQECBAgQIECAAAECBAgQINBFAcFGF+HsRoAAAQIECBAgQIAAAQIECHS/gGCj+/tADQgQIECAAAECBAgQIECAAIEuCgg2ughnNwIECBAgQIAAAQIECBAgQKD7BQQb3d8HakCAAAECBAgQIECAAAECBAh0UUCw0UU4uxEgQIAAAQIECBAgQIAAAQLdLyDY6P4+UAMCBAgQIECAAAECBAgQIECgiwKCjS7C2Y0AAQIECBAgQIAAAQIECBDofgHBRvf3gRoQIECAAAECBAgQIECAAAECXRQQbHQRzm4ECBAgQIAAAQIECBAgQIBA9wsINrq/D9SAAAECBAgQIECAAAECBAgQ6KKAYKOLcHYjQIAAAQIECBAgQIAAAQIEul9AsNH9faAGBAgQIECAAAECBAgQIECAQBcFBBtdhLMbAQIECBAgQIAAAQIECBAg0P0Cgo3u7wM1IECAAAECBAgQIECAAAECBLooINjoIpzdCBAgQIAAAQIECBAgQIAAge4XEGx0fx+oAQECBAgQIECAAAECBAgQINBFgb5d3M9uBHqkwIfjx6dJkyan8eMnpAH9+6U+fftU1bN/v2xdn+p1VRtY6NEC5//ysvSby35XquPmm22YfnTcET26vipHgAABAgQIECBAgMCcFxBszHljZ2igwLY77Jnef/+D6Z5x0UUWSptstF7a/vOfTssuM2y62/qwZwlMnjKlXKHJkyeX33tDgAABAgQIECBAgEDrCrgVpXX7vmVb/sqrr6err/1L2nWvg9M99z3Usg4aToAAAQIECBAgQIAAgWYQEGw0Qy9qQ6cCw4YsmfK/QYPmarfdNw85Oo2654F2660gQIAAAQIECBAgQIAAgWIIuBWlGP2kll0QOPSgfdMO232mas+33n4nXXX1delXl1xZXv+dY05K1/3+12nAgP7ldd4QIECAAAECBAgQIECAQDEEBBvF6Ce1rJPA/PPNm/bZ86ulEOO8X1xaOmrMyXHbnXenzTfdoN1ZYhLS0WPGpudHj03vvfd+Wnb4sDR8+JA096BB7batXTF16tT00suvpqeeeS69/vqbaeiQJdLwpYemBReYv3bTdssffPhhevqZ59Mzz45OMdJk+LAhpf37ZZOfVpbXXn8jq9e0OUXmnXdwWmD++So/Lr0fM/al0oSqsbDIwguWjle5UcxV8cKYl8qrop69e7cfzPXU08+lONbrb76VBs89KMVcJaustELqn03S2lGZMGFievGlV0of9eqV0rChS5XeR7h0/wOPpHfHvZfWWnO1tOQSi1XtPi5zfvyJp9PLr7yanWfutPSwpcr7Vm1ogQABAgQIECBAgAABApmAYMNl0JICX95h25QHGwHw7HMvpLRpG0U8XeXCiy5PV1z1x7aVFe9WW3XF9MNjjyj9uK9YXX57479vTT867WcdTmS6TBZuHH/Mt9Pyyw4vb5+/efudd9MPTzk7/fe2/+Wrql732v0raY9ddyw/2SXacP3fbipts+XHN0onHnt41fbRji/t+o3yugP33yN99ctfKC/Hm8effCbt9Y22/a6/+jdp/vnnLW9z3wMPpzN+emF68ulny+vyNxG67L7Ljmm3r26fryq/PvjwY+n/vn1Mefkff74sHXnMyVW3/hx56AHp89tsXd7m0t9ek3596VXt3NZfd6307QP3KW/nDQECBAgQIECAAAECBHKB9v8sm3/ilUATCwwcMKBqdMMbb7xZbu2bb72d9tjn252GGrHhQw8/nvbc79AOf+yffd6v09HHn9bux3l+gmeeG52+tvch6eZb7sxXlV5j/e77HNJpqBEb/fI3v00xL8jESZNK+6y79pql1/jP7f+7J8Uokcry4EOPVS6mO0fdV7UcCw898nh53UorLFsVajz6+FPpGwd/r8N2xk4x2uXnF15SdWtP+WA1byIcmd58Jn+87h/p3Asu7tDtjqxt+x90VHrttTdqjmqRAAECBAgQIECAAIFWFzBio9WvgBZtf9x+EQFGXuabb578bbrmj39Lz78wtrz88U02SCPWXLV0O8dtd4xKd9/7YOmz2P/iy3+fTjj60PK2cfvEFVdeW15ee8Tqaecvb5fmzm7deOChR9PvrrkuxVNZosRoi002Wjf1ivs0snLl7/9c/iyWY3TF6qutlF7Nfsz/5793pL//8z+xOt3/4KPpltvuKt06M3LtNUrr4j8RMsStIkOWWqK8rjZIiIAgRnFEsJOX++5/OH+bNlx/ZPn986PHVI24iA822XDdtPZaq6fR2a05/7r59rLhhb+6ohQUbfe5T5X3r33z13/8q7QqbmEZ8bHVUq/evdLiiy1SWhdB0clnnFu1S4Qs645cMz397PPp1ttHlc6VH6NqQwsECBAgQIAAAQIECLS0gGCjpbu/dRv/7ywoqCxLLbl4aXFKNuLh8iv/UP7oazvvkPbfe9fy8i47bZdO/8n56eo//rW0Ln5wxz69Pwon/nvrXeVtY76Ls04/vjxfxZprrFL6oR4jPaLECI24DSR+wEfQ8o8bby7v+93D/y9t+5mtystbbLZhFqxMSnGLS5S//P2mUrCx8EILpri1JY4VJQKCymDj9mzukNoS24xca1ogEiM8Yn6RvESQkJfaW2nOOfPE0pwY+eff3G/39PX9DyuHQKeeeV4WjKydFlt0WliRb1f5+qPjv9PhXCan//T8ys3SKT84Km268XrldREG7bzngR2O5ihv5A0BAgQIECBAgAABAi0pINhoyW5v7UbHaIf40V5ZNt5gndJiBBR/u/aS8kd9+vQpv8/ffC6bEyIPNmKUxNiKURIxmWde+vXrmyZMnFg1OiJCjFtvvCbfpPwaoyjiWHmJoKOyxKiO2vkz8s83zkZ95MHG/Q8+kj619cdLH7311jvpsWwSzihrrrFqirkyosQojjzYiBEeleddPZs7JEqMPImRIXnZ9+s7V4UasT7m1/jhcUek3fb+Vr5Z+vfNd6SYv6SjcsiBe3cYasRtNXk9Y79ds/k6KkONWBejPE774fdKt+HEskKAAAECBAgQIECAAIFcQLCRS3htOoEzzrqgam6I+KH/THZbQ+VtJtHoww/ZP80zz+By+zsKM+LDiVlI8V4WPkydMqW8bbyJJ6fkJSYVzUuMMthr/8PTjttvk9ZfZ0S7p3/k28VrPGUlJhPNJ+g85cc/T09kozm23HyjtOoqK1aFI5X7xft11/5YuvSKq0urK289uff+h8qbfm2XHdKJJ48p3c4Rt9NEUBHloUeeKG8Tt5nkT1155LGnyuvjzcc3Wb9qOV9Ybtml07AhS5ZN43abzoKN9UaOyHeren3++TFVy5/+xLRgpmplthBPUImAI7+Vp/ZzywQIECBAgAABAgQItKaAYKM1+71lWn3tn/8+3bYekYUaHc0LEU8nids+7s5GN8SP9Zn9MR0jISLciNs9osRIitOyWzSixK0p8XSPT261WVonCyP69q0eDbLHbl8qTTpa2jj7T4wKyUeGxDE333TD9IktNm53q8caq6+c71IKGOJxqvFY27vuvr+8fsTHVi2NgogJOmN0RL7NA9kIj7xssN5a+dv0RvZI18pSeXtL5fp4v+KKy5aDjVdfmzZ/SO02sTxkqWm3+9R+Fo+0rSzxuNnOSjxedmb7orNjWE+AAAECBAgQIECAQHMJeCpKc/Wn1sykQNwS8sPs0agdhRoRZOy8x4GlQOKf/7plln5IzzVwYDrzlGPTNp/esl1NYrLRmPzy20eekL7w5b3KozPyDeNxrTG3RIyAqC0RlJxz/m/SF7+ybzrzZ79IUypGjcREoBuut3Z5l0cee7L0Pn9k7HrZvBlRrxg1kpd7P5owtDL8GLnWx/KP07hx75XfRyCTj+Qor6x4s9giC5eX3n23bb/yyhm8eSm77SUvMzpXPtlovr1XAgQIECBAgAABAgQIGLHhGmhagZinIZ5IUlnmGjggLZLdzhA/oDsq7747Lu134FFVH316683T8KWHlPYZnD3dZPLkKen7J55RtU3lQmzzvSMOTAd/c690y63/S3ff92BpXouxL75c3ixCjv0P+m66/Fdnl26vyD+IOsffo1k4cesdd6f7s3kxah/RetXV16UBWZhxwD675bulDbJJO/NJQB/I5sYYmj0ZJR/ZEJ9FWSt7Qkte7soe+xq3duS35YTH0sOWyj8ujfjIF6KuH3zwYZprroH5qqrX/BixcoEFOnat2qFmoXKExgzPlT2pRSFAgAABAgQIECBAgEClgGCjUsP7phKIOR3iSSSzUkZ99CjXfJ+Lzjs9rbzicvli6TUegzozJQKOmMgzn8zz0cefKj1x5YYb/1vaPSbtHHXP/ekzn9yi3eFWXmn5FH9RYrt4YsoFF11efrzqdX/5Z1WwMXJE22Nf77nvobTE4ouWjxm3vUSJ21NWyY4ZIzpiNEdMOpqXzTfdIH9bel1owQWqliO8iFEuHZWnnn6uvHrRitEb5ZUzeLPcMktXbfFc5ltrnm8QhgoBAgQIECBAgAABAgQqBdyKUqnhfcsL3P9A25wTcUtIRz+wa0dQVKI9+dSzpdEWMeLinWz0R2WJY33/yG+VniaSr3/yo1AgJjaNfeIvn0A03yaePvKFbT+Z9tp9p3xVKeCoPP4yw4eWR6HE009uvuXO0rYxEqMyONg4myA0Sozm+NP1N5Tex3/WrbhNJZYr5+2I5auv/Uu8tCt33nVvqhyJkj9tpd2G01mx5BKLVX0aE6HGY2hrSzziNkZ0KAQIECBAgAABAgQIEKgUEGxUanjf8gJDh7bNbxGjFB7/6HGpOUzMSfHjsy7MF9u9Hnvij9PXv3F46e/gw45N8RjXyvL6G29UPV41nvIR5d4sjMj3+9reh6SbsolLa8tzNU8PGTx47vIm8TjYTSpGYOTza2y84TopPsvLuiPb5tH4139uy1entStuU4mV82ZPifn4Jm2jOCIEib/KwOGFMS+m7x53avkY8aayDlUfTGehd+/epUlV801i0taLL/996Sk0sS7OeXc2kuYHJ5+Vb+KVAAECBAgQIECAAAECZQG3opQpvCGQ0siaH/h77Hdoac6LpYcNSY88+kRprozpOcWjTuNRrVHi6SN77PPt8v4RBPzuD9dX7Z7fAhKPWo3RFfmIhO8df1qKyUTXzJ5mEuXW20elO/53T3nfHbf7bOpdEVjEB/HElcpRGLFuvZqRGKuuvEJpxEjc3pKXeOJKBBm15ajDv5nitpt4skuUk04/J533i0vTyLXXSGPGvFS6paVyn5+edlyab955KlfN9Pt4Os1ue3+rHPqc/8vLUvytucaqpTrkLjN9QBsSIECAAAECBAgQINAyAkZstExXa+jMCAwbulT6yo6fr9o0buuI2yNGZY9+jbLLTtUTklZu/MlPbFY10iFGfVz2//6QfnTaz0qjEPJAIW4v+fHJ3y8/ujUe/RoTjsb6vMTIhTPP/kXprzLUiMfF7rf3Lvlm5de112ybHDRfWXtrSJ8+fdIGWQBSWTZaf2TlYvl9hB1nnnps1eSmETDEHCH5k1fyjU/MnjCzbvb0la6WmBPk1BO/2273uK0mDzVijo8IdBQCBAgQIECAAAECBAhUCgg2KjW8byqB3n26dnkfdMCe6dCD9k21cz/EiIpjjjwo7b7LjlVOleeJx6qedMJ3SiHFMksPrdouFuIYEUz89jc/SxusVxMwbDCytH6rzTeuCjjyg8TEnxF+HPe9Q9Lcgwblq8uv888/b9UEnxEExPlqywYVj4aNz/LJRWu3i+W4VeacM0/s8PG18fnHVl85nfrD75ZGl8RyZYkQpbJU3hJTuT5/H7fDnHHyMWn5ZYfnq8qvESadfcYJVS69e3Wtf8sH9YYAAQIECBAgQIAAgaYQ6JXdv95+lr6maJpGEJh9gZig85VXXys9USSeFDKjH+e1Z5w0aXIaM/al7HGpH6QlskkyZ+VWjZhQ9KVXXk0Ds0e7xiNRa4OC2nPN6eWYL+TVV9/IJkV9N3vcbP+0yMILzVJ7ZqV+MUrjjTfeSv37988CpkW7ve2zUnfbEiBAgAABAgQIECDQWAHBRmO9nY0AAQIECBAgQIAAAQIECBCoo4Cx3HXEdCgCBAgQIECAAAECBAgQIECgsQKCjcZ6OxsBAgQIECBAgAABAgQIECBQRwHBRh0xHYoAAQIECBAgQIAAAQIECBBorIBgo7HezkaAAAECBAgQIECAAAECBAjUUUCwUUdMhyJAgAABAgQIECBAgAABAgQaKyDYaKy3sxEgQIAAAQIECBAgQIAAAQJ1FBBs1BHToQgQIECAAAECBAgQIECAAIHGCgg2GuvtbAQIECBAgAABAgQIECBAgEAdBQQbdcR0KAIECBAgQIAAAQIECBAgQKCxAoKNxno7GwECBAgQIECAAAECBAgQIFBHAcFGHTEdigABAgQIECBAgAABAgQIEGisgGCjsd7ORoAAAQIECCBuwZ8AAEAASURBVBAgQIAAAQIECNRRQLBRR0yHIkCAAAECBAgQIECAAAECBBorINhorLezESBAgAABAgQIECBAgAABAnUUEGzUEdOhCBAgQIAAAQIECBAgQIAAgcYKCDYa6+1sBAgQIECAAAECBAgQIECAQB0F+tbxWA5FoMcIPPPs6HTHXfemJ558Nr32+ptpypQpPaZuKkKAAAECBAgQIECAwPQFevfunRZeaIG0wvLD0/rrjEjLDB86/R182tICvaZmpaUFNL7pBH77uz+lW24b1XTt0iACBAgQIECAAAECrSqw8YYj01d2/FyrNl+7ZyAg2JgBkI+LJXDuBZekRx57qlTpT2yxcVp7xGppySUWS3369ClWQ9SWAAECBAgQIECAQAsLTJ48OY198eV0970PpRtuuqUkscpKy6UD9t2thVU0vTMBwUZnMtYXTiAfqRFD1r7+tS+loUOWLFwbVJgAAQIECBAgQIAAgWqB0S+MTRddfFXpFnMjN6ptLE0TMHmoK6EpBGJOjfz2E6FGU3SpRhAgQIAAAQIECBAoCcQ/WMZ3/CjxnT+++ysEKgUEG5Ua3hdWICYKjRK3nxipUdhuVHECBAgQIECAAAECHQrEd/z4rh8l/+7f4YZWtqSAYKMlu735Gh1PP4kSc2ooBAgQIECAAAECBAg0n0D+XT//7t98LdSirgoINroqZ78eJRCPdI0SE4UqBAgQIECAAAECBAg0n0D+XT//7t98LdSirgoINroqZ78eJTBlypRSfTz9pEd1i8oQIECAAAECBAgQqJtA/l0//+5ftwM7UOEFBBuF70INIECAAAECBAgQIECAAAECrSsg2GjdvtdyAgQIECBAgAABAgQIECBQeAHBRuG7UAMIECBAgAABAgQIECBAgEDrCgg2WrfvtZwAAQIECBAgQIAAAQIECBReQLBR+C7UAAIECBAgQIAAAQIECBAg0LoCgo3W7XstJ0CAAAECBAgQIECAAAEChRcQbBS+CzWAAAECBAgQIECAAAECBAi0roBgo3X7XssJECBAgAABAgQIECBAgEDhBQQbhe9CDSBAgAABAgQIECBAgAABAq0rINho3b7XcgIECBAgQIAAAQIECBAgUHgBwUbhu1ADCBAgQIAAAQIECBAgQIBA6woINlq377WcAAECBAgQIECAAAECBAgUXkCwUfgu1AACBAgQIECAAAECBAgQINC6AoKN1u17LSdAgAABAgQIECBAgAABAoUXEGwUvgs1gAABAgQIECBAgAABAgQItK6AYKN1+17LCRAgQIAAAQIECBAgQIBA4QUEG4XvQg0gQIAAAQIECBAgQIAAAQKtKyDYaN2+13ICBAgQIECAAAECBAgQIFB4AcFG4btQAwgQIECAAAECBAgQIECAQOsKCDZat++1nAABAgQIECBAgAABAgQIFF5AsFH4LtQAAgQIECBAgAABAgQIECDQugKCjdbtey0nQIAAAQIECBAgQIAAAQKFFxBsFL4LNYAAAQIECBAgQIAAAQIECLSugGCjdfteywkQIECAAAECBAgQIECAQOEFBBuF70INIECAAAECBAgQIECAAAECrSsg2GjdvtdyAgQIECBAgAABAgQIECBQeAHBRuG7UAMIECBAgAABAgQIECBAgEDrCgg2WrfvtZwAAQIECBAgQIAAAQIECBReQLBR+C7UAAIECBAgQIAAAQIECBAg0LoCgo3W7XstJ0CAAAECBAgQIECAAAEChRcQbBS+CzWAAAECBAgQIECAAAECBAi0roBgo3X7XssJECBAgAABAgQIECBAgEDhBQQbhe9CDSBAgAABAgQIECBAgAABAq0rINho3b7XcgIECBAgQIAAAQIECBAgUHgBwUbhu1ADCBAgQIAAAQIECBAgQIBA6woINlq377WcAAECBAgQIECAAAECBAgUXkCwUfgu1AACBAgQIECAAAECBAgQINC6AoKN1u17LSdAgAABAgQIECBAgAABAoUXEGwUvgs1gAABAgQIECBAgAABAgQItK6AYKN1+17LCRAgQIAAAQIECBAgQIBA4QUEG4XvQg0gQIAAAQIECBAgQIAAAQKtKyDYaN2+13ICBAgQIECAAAECBAgQIFB4AcFG4btQAwgQIECAAAECBAgQIECAQOsKCDZat++1nAABAgQIECBAgAABAgQIFF5AsFH4LtQAAgQIECBAgAABAgQIECDQugKCjdbtey0nQIAAAQIECBAgQIAAAQKFFxBsFL4LNYAAAQIECBAgQIAAAQIECLSugGCjdfteywkQIECAAAECBAgQIECAQOEFBBuF70INIECAAAECBAgQIECAAAECrSsg2GjdvtdyAgQIECBAgAABAgQIECBQeAHBRuG7UAMIECBAgAABAgQIECBAgEDrCgg2WrfvtZwAAQIECBAgQIAAAQIECBReQLBR+C7UAAIECBAgQIAAAQIECBAg0LoCgo3W7XstJ0CAAAECBAgQIECAAAEChRcQbBS+CzWAAAECBAgQIECAAAECBAi0roBgo3X7XssJECBAgAABAgQIECBAgEDhBQQbhe9CDSBAgAABAgQIECBAgAABAq0rINho3b7XcgIECBAgQIAAAQIECBAgUHgBwUbhu1ADCBAgQIAAAQIECBAgQIBA6woINlq375uq5b17T7uUJ0+e3FTt0hgCBAgQIECAAAECBKYJ5N/18+/+XAjkAoKNXMJroQUWXmiBUv3Hvvhyoduh8gQIECBAgAABAgQIdCyQf9fPv/t3vJW1rSgg2GjFXm/CNq+w/PBSq+6+96EmbJ0mESBAgAABAgQIECCQf9fPv/sTIZALCDZyCa+FFlh/nRGl+t9w0y1p9AtjC90WlSdAgAABAgQIECBAoFogvuPHd/0o+Xf/6i0stbKAYKOVe7+J2r7M8KFp4w1Hllp00cVXCTeaqG81hQABAgQIECBAoLUFItSI7/hR4jt/fPdXCFQK9JqalcoV3hMossC5F1ySHnnsqVITPrHFxmntEaulJZdYLPXp06fIzVJ3AgQIECBAgAABAi0lEBOFxpwacftJPlJjlZWWSwfsu1tLOWjszAkINmbOyVYFEvjt7/6UbrltVIFqrKoECBAgQIAAAQIECExPIEZqfGXHz01vE5+1sIBgo4U7v5mb/syzo9Mdd92bnnjy2fTa62+mKVOmNHNztY0AAQIECBAgQIBAUwnEI13j6ScxUWjMqeH2k6bq3ro3RrBRd1IHJECAAAECBAgQIECAAAECBBolYPLQRkk7DwECBAgQIECAAAECBAgQIFB3AcFG3UkdkAABAgQIECBAgAABAgQIEGiUgGCjUdLOQ4AAAQIECBAgQIAAAQIECNRdQLBRd1IHJECAAAECBAgQIECAAAECBBolINholLTzECBAgAABAgQIECBAgAABAnUXEGzUndQBCRAgQIAAAQIECBAgQIAAgUYJCDYaJe08BAgQIECAAAECBAgQIECAQN0FBBt1J3VAAgQIECBAgAABAgQIECBAoFECgo1GSTsPAQIECBAgQIAAAQIECBAgUHcBwUbdSR2QAAECBAgQIECAAAECBAgQaJSAYKNR0s5DgAABAgQIECBAgAABAgQI1F1AsFF3UgckQIAAAQIECBAgQIAAAQIEGiUg2GiUtPMQIECAAAECBAgQIECAAAECdRcQbNSd1AEJECBAgAABAgQIECBAgACBRgkINhol7TwECBAgQIAAAQIECBAgQIBA3QUEG3UndUACBAgQIECAAAECBAgQIECgUQKCjUZJOw8BAgQIECBAgAABAgQIECBQdwHBRt1JHZAAAQIECBAgQIAAAQIECBBolIBgo1HSzkOAAAECBAgQIECAAAECBAjUXUCwUXdSByRAgAABAgQIECBAgAABAgQaJSDYaJS08xAgQIAAAQIECBAgQIAAAQJ1FxBs1J3UAQkQIECAAAECBAgQIECAAIFGCQg2GiXtPAQIECBAgAABAgQIECBAgEDdBQQbdSd1QAIECBAgQIAAAQIECBAgQKBRAoKNRkk7DwECBAgQIECAAAECBAgQIFB3AcFG3UkdkAABAgQIECBAgAABAgQIEGiUgGCjUdLOQ4AAAQIECBAgQIAAAQIECNRdQLBRd1IHJECAAAECBAgQIECAAAECBBolINholLTzECBAgAABAgQIECBAgAABAnUXEGzUndQBCRAgQIAAAQIECBAgQIAAgUYJCDYaJe08BAgQIECAAAECBAgQIECAQN0FBBt1J3VAAgQIECBAgAABAgQIECBAoFECgo1GSTsPAQIECBAgQIAAAQIECBAgUHcBwUbdSR2QAAECBAgQIECAAAECBAgQaJSAYKNR0s5DgAABAgQIECBAgAABAgQI1F1AsFF3UgckQIAAAQIECBAgQIAAAQIEGiUg2GiUtPMQIECAAAECBAgQIECAAAECdRcQbNSd1AEJECBAgAABAgQIECBAgACBRgkINhol7TwECBAgQIAAAQIECBAgQIBA3QUEG3UndUACBAgQIECAAAECBAgQIECgUQKCjUZJOw8BAgQIECBAgAABAgQIECBQdwHBRt1JHZAAAQIECBAgQIAAAQIECBBolIBgo1HSzkOAAAECBAgQIECAAAECBAjUXUCwUXdSByRAgAABAgQIECBAgAABAgQaJSDYaJS08xAgQIAAAQIECBAgQIAAAQJ1FxBs1J3UAQkQIECAAAECBAgQIECAAIFGCQg2GiXtPAQIECBAgAABAgQIECBAgEDdBfrW/YgOSKAHCDz6wqR0470T0gPPTkovvTk5TZnSAyqlCgQIECBAgAABAgQIzJRA7+yf4BdfoE9aY3jftOWI/mnlIX66zhRci27Ua2pWWrTtmt2kAuf++f30t1Hjm7R1mkWAAAECBAgQIECg9QQ+NXJAOmDbQa3XcC2eKQHBxkwx2agoAsddNi7d8+TEolRXPQkQIECAAAECBAgQmEmBtZbvl47bZfBMbm2zVhIwx0Yr9XaTtzVGagg1mryTNY8AAQIECBAgQKBlBeK7fnznVwjUCgg2akUsF1Ig5tRw+0khu06lCRAgQIAAAQIECMy0QHznj+/+CoFKAcFGpYb3hRWIiUIVAgQIECBAgAABAgSaX8B3/+bv41ltoWBjVsVs3yMF4uknCgECBAgQIECAAAECzS/gu3/z9/GstlCwMatitu+RAvFIV4UAAQIECBAgQIAAgeYX8N2/+ft4Vlso2JhVMdv3SIEpU3pktVSKAAECBAgQIECAAIE6C/juX2fQJjicYKMJOlETCBAgQIAAAQIECBAgQIBAqwoINlq157WbAAECBAgQIECAAAECBAg0gYBgowk6URMIECBAgAABAgQIECBAgECrCgg2WrXntZsAAQIECBAgQIAAAQIECDSBgGCjCTpREwgQIECAAAECBAgQIECAQKsKCDZatee1mwABAgQIECBAgAABAgQINIGAYKMJOlETCBAgQIAAAQIECBAgQIBAqwoINlq157WbAAECBAgQIECAAAECBAg0gYBgowk6URMIECBAgAABAgQIECBAgECrCgg2WrXntZsAAQIECBAgQIAAAQIECDSBgGCjCTpREwgQIECAAAECBAgQIECAQKsKCDZatee1mwABAgQIECBAgAABAgQINIGAYKMJOlETCBAgQIAAAQIECBAgQIBAqwoINlq157WbAAECBAgQIECAAAECBAg0gYBgowk6URMIECBAgAABAgQIECBAgECrCgg2WrXntZsAAQIECBAgQIAAAQIECDSBgGCjCTpREwgQIECAAAECBAgQIECAQKsKCDZatee1mwABAgQIECBAgAABAgQINIGAYKMJOlETCBAgQIAAgfoJzDuoV1plaN/6HdCRCBAgQIAAgTkq4P9rz1FeBydAgAABAgSKJLDDxgPTbp+YK/XKKv3aO1PSXme+XaTqqysBAgQIEGhJAcFGS3a7RhMgQIAAgekLfHbdAWnfzwwqbfTBhKnpqye/Nf0dmuTT7bNgI0KNKAvP2zutu2K/9L/HJ05b4b8ECBAgQIBAjxRwK0qP7BaVIkCAAAEC3Ssw98BeqVf2Cz/+BvTLf+p3b50acfZ33p9SdZqX3qxervrQAgECBAgQINAjBAQbPaIbVIIAAQIECBDoCQJnXft+euXtKenDiVPTX+8an0a/OrknVEsdCBAgQIAAgekIuBVlOjg+IkCAAAECBFpL4JHRk9I+PzGvRmv1utYSIECAQNEFjNgoeg+qPwECBAgQIECAAAECBAgQaGEBIzZauPM1nQABAgQINFJghaX6libjXGqh3qV5O15+a0p65qXJ6cZ7x6cpU2e+Juus0C+tsUzftNRCfdK7H0xNj2ajLG59eELpfRwlPh/Yf9q8IHc8OiFNnIW7Seafu3daffi0r0evZ09FiREceenXJ6X1V+5fWvwwm1D1riemTSqar99g5X6lzx4fMznd89REt7HkcF4JECBAgMAcFhBszGFghydAgAABAq0uEE8W+ebnBqUFBnc8UPSAbQel/zw4If3kmvemS7XWcv3SYTvMnQbPVT2Z6ZZr9k/7fXZQ+sOtH6aL//lBOnrnweUnm3zv11PSg8+1hRPTPUH24bbrD0hf2nRgabMITXY9te1pMCsN6ZsO33Hu0meRw2x3/Jvph7vPUw5CSh9k/9l09Xg3V7rvmUnpR78dlyIEUQgQIECAAIE5J9DxN4w5dz5HJkCAAAECBFpI4MubDUxHf3Vwp6FGUPTJvo1s8bH+6bwD5+v0CSxDF+mTjskCi9pQI6eMY+ywycD0f5+f9ojafP2cfP3Ol+ZuF2pUnm/NbFTJzw6Yt3KV9wQIECBAgMAcEBBszAFUhyRAgAABAgRSWnVY37TLFnNVUbw/fmrpNo1/3jshvZLdilI5lmGJBXuXQpCqHbKFwdmjZ0/be55SAJJ/NmHS1NJtIn8bNT698NrkNPWjA2291oDyaI182znxGmNGNlp12m0pb46bkm5/dGL6w20fpgeenVTVpkXm6522WW/AnKiCYxIgQIAAAQIfCbgVxaVAgAABAgQIzBGBo3YaXHXci2/4IP3+lg+r1s03qFf6xSHzpf59p91e8rFslMOay/ZL9z09bf6K2PjEPeZJc300Z0YsR4hw0v8bF2/LJea5iOPEHBmNLH/JHgl73nXvV50y5hKJICa/YebzGwxM1905vmobCwQIECBAgED9BBr7//3rV29HIkCAAAECBHqwwPJL9knzZqFFXmIyzdpQIz57+/2p6YTLxlWNcsjnuIjPBw3olYYvlqUWH5UX35jSLtSIj2KC0G+d926KkRyNKjFpaW2oEed+YsykNOqjiUVjef7BbQ6xrBAgQIAAAQL1FRBs1NfT0QgQIECAAIFM4AvZKIW8RNQQ4UVnJW7feDD7y8vKQ9sGlG6RTQxaGQv8+OrOJxiNW0L+dHvjRkbcdP+EvMrtXv/3eNuIkwH9KlvQblMrCBAgQIAAgdkUEGzMJqDdCRAgQIAAgfYCSy3cNsrivezpIjN6nOvj2SiHvMRtJb0/ygKGVBwnApLK7fLtK1/zR7BWrptT729/pC28qD3Hcy+3PWNWrFGrY5kAAQIECNRXQLBRX09HI0CAAAECBDKBeSpuQ3k5myR0RuWhmkeyLrbAtK8oC83b9lXlvQ9nfJvJI9ntITPeaka1mfHncY633uu8XTFJqkKAAAECBAg0RqDt20JjzucsBAgQIECAQAsIDKy4/eKNdzsPAHKK0a+2jXCIdQsMnvYVZWLFnBl92waB5Lu1e41JRo2QaMdiBQECBAgQaGoBwUZTd6/GESBAgACB7hGoHLEQj3GdUVl5SNu8GrFtPsrj1bfbQpEISwZWPB2lo2OuvXy/jlZbR4AAAQIECDSxwIy/aTRx4zWNAAECBAgQmDMC77zfFkgsXHE7SWdnW3Xp6mDj9Xem7R9PHqksm63ev3Kx3ftNZ/B5ux2sIECAAAECBAovINgofBdqAAECBAgQ6HkCj7/QdmtJjLKYf+7pf+VYdVhbsFE52uP2RyemyW0ZSdp/m0Fp8Y/m36ht9RYf6582WNmIjVoXywQIECBAoNkFpv8to9lbr30ECBAgQIDAHBG4+tYPq4572j7zpF6dTH6x3YYD09KLtk2gcfeT1U8b+duotke49sm+uZyx77xp41X7l5+cMnhgr/TFjQamg7ebu+qcFggQIECAAIHWEGj755HWaK9WEiBAgAABAg0QiFtJnntlcjmwWHS+3um4XQenU658L1WOyIiAYo9PzlWuUTxL5LKbqkOR869/Pw1frE/KR3VEkHHEl+bOnn4yd5owcWoaUDFRaYzuiPBDIUCAAAECBFpHQLDROn2tpQQIECBAoEsCERT84fsLzNS+L705Je1/9tulbY+/dFy68FvzlYOGEcv2S1ccOX/pManjs0EZMfdGbQjx5zvGp7Gvt93Gkp/0e79+N11w8HxpkSwgyUsMAKkMNSIU+dFvx6Wjvzq409Eh+b5eCRAgQIAAgeYRaPt20Dxt0hICBAgQIECgzgJxG8nM/A2eq+1+k9ezx7wee8m7aVJNThHzbSw2f/tQ41/3T0i/+Ov7HdZ8SpZa/N+576S/3jU+fZiN0qgsMUrj0RcmpX1/+na664nq21gqt/OeAAECBAgQaE4BIzaas1+1igABAgQIzJZAbRgxswebUjHRZ+zzwLNZ4HDW2+mbnxuUYsRG7QiN2CYe7XrpPz9I/3lwQix2Wj6cMDX9/Lr3S3+9s/xkoWzExwfjp6ZxH7YFHaV5PNqylRSByKyUSZPbdqhtS5VJ22YdHn5iTZjT4UZWEiBAgAABAnUR6DU1K3U5koMQ6EaBLxz/Zjee3akJECBAYGYEIoyIuTLiLwKI196Zmp5+cVJ694PpfxUZNKBXORCJcGN6oUHMw3HSnvOUq7PHGW+nN8fVpC3lT70hQIAAgaIKXHvszN0iWdT2qfesCRixMWtetiZAgAABAgS6KBCjJ55+aXLpb1YOcfYB85bm44h9IqSIsKKzcsj2bU9GiVtUhBqdSVlPgAABAgSaR8AcG83Tl1pCgAABAgSaUuCqm9uekrLA4N7pwmwS0Xi86xILTvsaE7e3bLJa//TrQ+dL8fSVvIwy30ZO4ZUAAQIECDS1gBEbTd29GkeAAAECBIovEBOG7rbVXCke8xpl0Wzi0T22nqv0FzfUlubVqGnmmOzJKmde817NWosECBAgQIBAMwq0/bNGM7ZOmwgQIECAAIGmENjnJ2+nB5+b1K4tHYUatz4yIR3ws3fS+9nEogoBAgQIECDQ/AJGbDR/H2shAQIECBAovECEFN/79btpo1X6py1H9E9LLdwnLThPr9SvT68UE4q+9OaU9MSYSen2Ryeme57yyNfCd7gGECBAgACBWRAQbMwClk0JECBAgACB7hWI0RjxpxAgQIAAAQIEcgG3ouQSXgkQIECAAAECBAgQIECAAIHCCQg2CtdlKkyAAAECBAgQIECAAAECBAjkAoKNXMIrAQIECBAgQIAAAQIECBAgUDgBwUbhukyFCRAgQIAAAQIECBAgQIAAgVxAsJFLeCVAgAABAgQIECBAgAABAgQKJyDYKFyXqTABAgQIECBAgAABAgQIECCQCwg2cgmvBAgQIECAAAECBAgQIECAQOEEBBuF6zIVJkCAAAECBAgQIECAAAECBHIBwUYu4ZUAAQIECBAgQIAAAQIECBAonIBgo3BdpsIECBAgQIAAAQIECBAgQIBALiDYyCW8EiBAgAABAgQIECBAgAABAoUTEGwUrstUmAABAgQIECBAgAABAgQIEMgFBBu5hFcCBAgQIECAAAECBAgQIECgcAKCjcJ1mQp3JNDbldwRi3UECBAgQIAAAQIEmk7Ad/+m69LZbpCfg7NN6AA9QWDxBfr0hGqoAwECBAgQIECAAAECc1jAd/85DFzAwws2CthpqtxeYI3hfduvtIYAAQIECBAgQIAAgaYT8N2/6bp0thsk2JhtQgfoCQJbjujfE6qhDgQIECBAgAABAgQIzGEB3/3nMHABDy/YKGCnqXJ7gZWH9E2fGjmg/QfWECBAgAABAgQIECDQNALxnT+++ysEKgUEG5Ua3hda4IBtB6W1lu/3/9u7E3irpv6P46t5npSSlGaUlBQNioyRMf6miNBjHh/Dk3l6kIxlyDxHiFCPecqUkCJCKZTSqHku//Vd19p3n+l22ud2960+y+s6++y919prv/c5p7N/Zw2b9DlQeQQQQAABBBBAAAEEEEgvoO/6+s5PQiBZoMTfNiWv5DkCm7LA/SOWmbe+XrkpnwJ1RwABBBBAAAEEEEAAgZCAWmoQ1AiBsJggQGAjgYMnm4vAj9PXmPfHrTLf/brG/PnXWrNu3eZyZpwHAggggAACCCCAAAKbv4CmdNXsJxooVGNq0P1k87/muZwhgY1c9MiLAAIIIIAAAggggAACCCCAAAKxCjDGRqz8HBwBBBBAAAEEEEAAAQQQQAABBHIRILCRix55EUAAAQQQQAABBBBAAAEEEEAgVgECG7Hyc3AEEEAAAQQQQAABBBBAAAEEEMhFgMBGLnrkRQABBBBAAAEEEEAAAQQQQACBWAUIbMTKz8ERQAABBBBAAAEEEEAAAQQQQCAXAQIbueiRFwEEEEAAAQQQQAABBBBAAAEEYhUgsBErPwdHAAEEEEAAAQQQQAABBBBAAIFcBAhs5KJHXgQQQAABBBBAAAEEEEAAAQQQiFWAwEas/BwcAQQQQAABBBBAAAEEEEAAAQRyESCwkYseeRFAAAEEEEAAAQQQQAABBBBAIFYBAhux8nNwBBBAAAEEEEAAAQQQQAABBBDIRYDARi565EUAAQQQQAABBBBAAAEEEEAAgVgFCGzEys/BEUAAAQQQQAABBBBAAAEEEEAgFwECG7nokRcBBBBAAAEEEEAAAQQQQAABBGIVILARKz8HRwABBBBAAAEEEEAAAQQQQACBXAQIbOSiR14EEEAAAQQQQAABBBBAAAEEEIhVgMBGrPwcHAEEEEAAAQQQQAABBBBAAAEEchEgsJGLHnkRQAABBBBAAAEEEEAAAQQQQCBWAQIbsfJzcAQQQAABBBBAAAEEEEAAAQQQyEWAwEYueuRFAAEEEEAAAQQQQAABBBBAAIFYBQhsxMrPwRFAAAEEEEAAAQQQQAABBBBAIBcBAhu56JEXAQQQQAABBBBAAAEEEEAAAQRiFSCwESs/B0cAAQQQQAABBBBAAAEEEEAAgVwECGzkokdeBBBAAAEEEEAAAQQQQAABBBCIVYDARqz8HBwBBBBAAAEEEEAAAQQQQAABBHIRILCRix55EUAAAQQQQAABBBBAAAEEEEAgVgECG7Hyc3AEEEAAAQQQQAABBBBAAAEEEMhFgMBGLnrkRQABBBBAAAEEEEAAAQQQQACBWAUIbMTKz8ERQAABBBBAAAEEEEAAAQQQQCAXAQIbueiRFwEEEEAAAQQQQAABBBBAAAEEYhUgsBErPwdHAAEEEEAAAQQQQAABBBBAAIFcBAhs5KJHXgQQQAABBBBAAAEEEEAAAQQQiFWAwEas/BwcAQQQQAABBBBAAAEEEEAAAQRyESCwkYseeRFAAAEEEEAAAQQQQAABBBBAIFYBAhux8nNwBBBAAAEEEEAAAQQQQAABBBDIRYDARi565EUAAQQQQAABBBBAAAEEEEAAgVgFCGzEys/BEUAAAQQQQAABBBBAAAEEEEAgFwECG7nokRcBBBBAAAEEEEAAAQQQQAABBGIVILARKz8HRwABBBBAAAEEEEAAAQQQQACBXAQIbOSiR14EEEAAAQQQQAABBBBAAAEEEIhVgMBGrPwcHAEEEEAAAQQQQAABBBBAAAEEchEgsJGLHnkRQAABBBBAAAEEEEAAAQQQQCBWAQIbsfJzcAQQQAABBBBAAAEEEEAAAQQQyEWAwEYueuRFAAEEEEAAAQQQQAABBBBAAIFYBQhsxMrPwRFAAAEEEEAAAQQQQAABBBBAIBcBAhu56JEXAQQQQAABBBBAAAEEEEAAAQRiFSCwESs/B0cAAQQQQAABBBBAAAEEEEAAgVwECGzkokdeBBBAAAEEEEAAAQQQQAABBBCIVYDARqz8HBwBBBBAAAEEEEAAAQQQQAABBHIRILCRix55EUAAAQQQQAABBBBAAAEEEEAgVgECG7Hyc3AEEEAAAQQQQAABBBBAAAEEEMhFoHQumcmLQHETGDdunBk9erSZNm2aWbNmzUapXunSpU39+vVNhw4dTJs2bTbKMSgUAQQQQAABBBBAAAEEEEAgO4ESf9uU3a7shUDxFhg5cqQZNWpUkVaya9eupkePHkV6TA6GAAIIIIAAAggggAACCCCQL0CLjXwLljZhAbXU8EGNI444wrRt29aUK1duo5zRypUrzdixY83w4cPdMevVq0fLjY0iTaEIIIAAAggggAACCCCAwPoFGGNj/UbssQkIqPuJkoIaHTt23GhBDR1DARMdQ8dS8sd2T/gfAggggAACCCCAAAIIIIBAkQoQ2ChSbg62sQQ0poaSWmoUVfLH8scuquNyHAQQQAABBBBAAIHNR0DjAsyYt3bzOSHOBIEYBOiKEgM6hyx8AT9Q6MbqfpKuxv5Y/tjp9tnQdStWrDDr1mUe9qZChfKmRIkSG1os+2+AQK+TzzJfjR1vGm5f37w1YugG5GRXBBAoSGDVqlUm07BeGpS5VKlSBWUvlttWrlxl6/W3/VwuacqWLVPodVT5/a65zZW7W9tWptexhxf6MSgQgS1RQJ9Fs2bPNRUrVjBVq1QuNAKNXPiHDVD8/MdaM33OWrPd1qVM83qlTL1apUymb29rbDzjXwMXmnmL1pm6W5U0D5xbzX6mFFqVKAiBLUaAwMYWc6k50U1BoH2nA82MmX9mrGrlypXMXl06mfbt2phDDj7ANGrYIOO+bIgmMGv2HDN37jxTtkzh36REqxG5ENg8BK647naTFwhIfz5lbHCjatUqpmWLZqZLp/Zmmzpbp9+xmKzVjdElV9zsalOjRjVzw1UXFXrN1q1bZ1b/M8PXkiVLC718CkRgSxN45/1PzPhvJ5ppf8y0PyStc6dfoXx5+31qO3PYIfubenXrRCJRcGLgq0vNJ9+vMmvzik0op5RtI9+9XTlzeveKpmRS0GLclNUuqKEMM+evMxOnrTEtGnCLlgDIEwSyEOBdkwUSuyBQXAT0xXbkG++4v9vvut+8Nuxp03qXlsWletQDAQQQiCygG/h58/8yoz4Z4/52btHcnHLi0XZco7KRy9yYGcOt50pnaG3ywMPPmKm/TnfVuPXGy0zJkvQA3pjXhLK3TAEFKBQ4XWcjCgpQnNX3xBQIBSKfGvKKbZH5bcq25ba17A8/TjY//jzFnHHa8abFjs1S9iloxfzF68yVTy4psCuJgh0jx6w0P/y2xlx3UmVTvVL+Z8GO2+XfjikA0rjuptd6rSAftiFQVAL576SiOiLHQQCB9QqoZcY1V/w7Yb9ly5ebqVN/N8OGjzAKcOhvnwN7uu4S7XZrk7AvTxBAAIHiLHDAvl0Sqrdo8RIzZ+5888uU34L1E3742dxw6yBz+UX/ci05gg3FaEGBCt1UlcnQwuuvBYuMbppICCCwcQWWLl3mDqD3XLo0fMQ7CUGNPTu1M9vXr2cWLFxkRo8Z54Kqei8/8PCzrvWVWmFlk9R7+MIHF5mFS/O6ESswcdSe5c1O9UubbWqUdC0wxk9dY179PO9zYOqsteamIUvN7X2rBMVXrlDCPH5xNTN+yhrTtmkZU75MUpOOYE8WEECgIAECGwXpsA2BmASqVqliTuvTK+3Rr7v6UnPuhf1cqw3t8OgTQwyBjbRUrEQAgWIooBYYhx68b9qaLV++wrz/0efmzXc+ctsXLVpsHnnyBXPxeael3T/ulaX+CWzQdS3uK8HxEShY4Isvx7kdFIy86NxT7Tha2wUZ9u3W2Qy87wnz6+95ravGT5ho9u7SIdhe0MJnP6wKghoVy5Uwd51R1QU0fJ5ta5YyuzUrY/ZpXdZc/NAi101l0ow1Zq4dT6NW1fxWG1tVKWm62X1ICCAQXYDARnQ7ciIQi4D6oA+862bz0cefuVYb73/4iRuQL9wsOlwx/Yrx62/TzOw5c0yN6tVNgwbbma1qVA/vkrC8cuVKs2rVatdkulKlim7b2rVrzfc//GiW2ZuOHZo3teUk/pKhJp5/zpptfvnlV1O1WhWz0w7N7S+Y2X28zJ033/xuv0wsXLTI1Kld2zYjrW8qVKiQUKfwk2XLlhvVR+WXt/1ilZbb1izfjJ9gKlWsaJo3a5ySf43t/KpjTJv+h2lgf6FpaMcmyeQVPpZfXr16jfnt92kuf82aW5nGDbc3alWTTfJ5/7D9ecvbwV+3q1fX1Nu2bsasqqvOR0n++hIm31+m/OquY5NG25tG9m99KV05yjP119+dRdOmjcy2dbdJcdCvV5MnTzFrrHGrlju5OqzvWNq+oa+zbMpkny1PQAMk9+jezX0OqBuH0tRfp9lfVL8xHXbftUAQfZbMm7/ArFix0n1G1d66pv2MKJcxjz7n1qxdY/u7l0zY789Zc+zn5Tyzda2tjMooaFBTDXqqLjRlkgYOVYDmb/tfeHBpfXaV1M+5NqlP/4Z8BiWfhMqd+lveTZh+dc524FLl0/nJqU7tWu4vXT28TTZ19edaqmSptN2G9HmtQRrnzvvLjV1Uq1YNU8t+jhZG0mejWvronKrZfxvrbVvH6JpkSv68crnmmcpOXp+tdXI+/9y9nuctcK+vBtvV3aBWS4ttC6jZ1kUtOzVWjV7H6a6zP1b4UddLr//5fy2w//YY+32hmnudFPQ+8K8BBfgy+as1xAr7/UIp+fWv7x1r7XZ16SpbNu/mXvv/9vsf9nvHcncO+t6SfA6+THVB8UnuyqOkwKMGetfrz7foUBe3cFBD+2l8n/333dM8/Pjzemq+nfBT1oENDRLq0/5tyyUENfx6PTasU8oc1qG8eeWzvJYb741bZY7tmvcdRttXrLKfF/Y0StuPiPJlM7fYWLz8bzN97lqzYMnfbqDR+nZw0n8+VsxyW4YoStueLOFWH1qnbUqVbPDFD0z615J1bpDTrSqXMCqnoOO6zBn+t3SFPu2MKWdbmpTJ0IsmUx1UZLp6r1j9t5k2e60NAP1ttq5W0g7Caj+nacmS4Qqw2gtk/vT3e/CIAALFTqB6tar2S/5u5t33R7mBLtVFpXHjxJtd3aDeOmCgefjRp1Pqf/ih3c01V17iZv5I3nj2+Zeb4a+94VbPmvaDufLam83zL7ziviD5fY8/tqe56fp+RvX46utx5tJ+N5hvv/veb3aPOsZ999yaEmTwO/340yRz0613mTfefM+vCh7PPqOPueLyC9Lm3al157xuOHvvaQbfd7s5+7zLnEOQ2S6oVctZ/+pjb0hKmhdfft1cfd2tzsnvo6DEeWefbi656Gy/Ku2jggNPPjPU3PDf2xPOXzuf2fdkc1W/i9LWUdv1hWvww0+ae+59OOHY2rZrm1bmuqsuNXt23kNPE9LTQ14wl1x+nVv3xmvPmzFfjTWD7n80KONfp/c2t9x4ZUKedE+Sy/l50i+m/+2DEganVT0eGHSbada0sfljxkxzzfX9g2vvy9Q+Dz9wp73RbOBXJTxGfZ0lFMITBJIEWuzY1Oyzdyfz/oefuS0f2XE3MgU2vhr7nXnVNjPXazE5tWq5gzn26EPcTW/ytgceedZMtsFYpYG3X2uGDhtpxthfdf1gnW6D/Z8CLeo6k258DAU01NWkXCiwoZtK9fdPTv2uHRCsOv/sU0yzJg2D59ku/LVgoXnw0efs+zVxkGkFYTQeSYP626YtaroNrD7xzDB3g5e8Q/3ttjV9TznWhJvePzt0uBk7Lu8zvW+f48wuO++YnM09n28DJNf+9263rDpc0+/8YD8FHUa++YG7hsmmOtYxPXsY3WRGSYvtDfszzw234yJMSsmusnsdc7gNwjdO2VYY1zyl0KQVG2qdlN26TzDqNvHXXwsTNqmlU8udmpsTjjksbQBJO0//40/zwssjXTAwnFmv3Qb2Ovfu1dMF7MLb/LKu14g33jcf2BZTyddLN/7qunHEoQekvA8UPPGv7bZtWpo+J/2fLzLhUe/hl19906078/QT3Ln4HS67qr/7N7PettuY888+2Tz02PMJ3dK0n86/9wk9E16Lsnry2Zd9Me5Rga7LbXk+DbrjOhf4O6zHfi4wstMOTfymhMcqoR8rZJFtUkDCpzrVbVSigPR/Xcqb1o3zbr3UkiOcTr5joQtu6Cb+kQsTfzzSfouW/W0GvbbUjPlpdTibC2qcvF8FFzTp1X+BC2xsX7uUGXhW1WA/BVOefi8v2HND7ypm9gL73ead5UZBknDq1KKsOefQiqZy+cyBlfD+Wl5o69V7wAK3es+WZc2lR6f/0Ufjizz6Vl53oatPqGza2VYsPvl6N7LBn1tPrWKefn+5GfFFXhDM76PgTY/dy5tTD6gQBGb8Nh4R8AIFvwP9XjwigECxEwj/Qpjch3vV6tXmlNPPSxvU0Im8+vqb5qhj+7hfZJJPLPwP+oA77zWPPPZMyk39c0NfNn3PvMjeBHxjDjzk2JSghj9G71PPNSvtFI/JSTfRhx99ctqghva9/8HHzTkX/CcYsTw5v57rF6LTzrgwJaihbdfdOMDce/8j5oGHnjBnnXtpEBTQNiV9EbvltnvMgDvvy1uR4f/X3tDfXNbv+pTz1+4KWlx86TUZp69UECE5oOIP88247+z59zZjv0kdxCz8fUrjqVx7w20p9fflFPQYLuft9z40F/z7yoSghvKqHocceaKZNHmK6X7IcSlBDb/PYT1Psl+YZ6QcLpfXWUphrEAgSeDgA/YO1uhmUd1SktPX33xnb2yGpQ1qaN/vvv/J3DHwEdeKIzlv+LNu2PA3zaeff5VyQ6c8ujl/7sXXk7O757rhUwq3mEi8VXCbU/8XfoOmbk27Ri3m7hz4aEpQQzvrZu7uex8zM/+cnZL340+/NP3vfDBtUEM7T5s+w/x3wH0J5e5uZ97yacxX4/1iyuOXoYEY92ifn0c76gb7rXdHpTXVTfuDjw4JAkspBRewQr/iX3vjXWmDGsqmsu998CkbFE6td2Fc8wKqZqJYh8v7Zvz35vGnX0oJamgfzSikG/mb+t9rW7/MD2dzy3oN3Glf62rhlJwUaFc3C+VNFwzS/kNeeM28/d7Haa+XAh0fjBrt3mvJZYdf7wVNVx+2/zvDtPar7XeXgfc/mRLU0DF1/mpRIQOfsn0bqZXp/vvsafazXU4UPEmXfFcVbcsUIEyXr+X2+b8Rv/nVSrPStjTIlCrZgMGuTcq4v/UFQcJlrLaNQq58YnFKUEP7qCXEY28vN4+8mRc0COfzy2Gn0RNXmXtfW5YS1NC+6lZz4eBFJsPl8cUlPoZOt6B8Cdc/lCdcmM7lumeWpAQ1tI+2vTZ6hXm4gPMMl8XylimQ/27cMs+fs0ZgkxTQDeWXX40L6q5f3HzSPx6XXH6t+fiT0W7VLq1amhOPP8q0ab2z0a/2L70ywnz40aeuW0PvPueYYS88bn9tzGv66cvwj5p5ZY/2bc0ZtnVCw+3ru9YZl11xg9usLjD6U+rd6xhz2KEH2l9Fq9qbgzEusKD12v6lDX6EWybo18zjTzojuFnvcdD+5tBDDjSNVP7Y8eYxO2aIul0o+KJWAlcnDaKqcpU+/+Ir96jWI//X81DXzWPEyLddUEQbbrzlTrdd/7u638WuDmqi/uLLr5lnhrzktqlFy7lnnZq21YWm3VXwQq07dH77dNvT5fngw09dKw4FR14Y9ppp2XJHW8Zpbpv/39AXhxvZKdWqVdP0PfVE07nT7vbL6gLz7nujXH5tO/KYU8wnH4ww4eun9T4pqKR04glHu+tQu7ZtUly7lt+c9eNd9wx29fjPpeeZ3XbdxX3xVSsUdVHS1LYduhzkylIdTzull+3q0sD8+NPkIDAji+eGvmIuvfic4JiF+ToLCmUBgZCAfqHdwXYt+2nSFLf292kzzM62BYZPkyZPda0Q/HP9+q+WBbVq1nCzG4y2rS8UDNGN7sAHnjT/Pv+0jN1KPvrkC9ftap+9OrqWFLqJ+vDjL8z3E392xasrjLbV3aa2P5x7VB2VfPN5LeuX3wvP6aNF85i9SfUBmfPOOtk1jdd6dUnb0DTFtsxTkkn73XZxdVET+2H2V3A1s9fNp26Kr7g0vyWazuOl4Xkt8JRXv6i3sp9ZdbfZ2nVHeePtj2zQcqa7aVSLFT+WiVrM6NyUX8EhdU9I1xUhHDzoGOoqJM9PPsv7jFbwp1PH3dxME/rcHP/dRNvU/0dVxwwa/JS56vJzM7YicDsl/e/Fl/8X3HzrJrVzh93M9g3q2S6Uq8yno8cGA0Q+O/RV065tq5QWBr64qNfc509+jGrty9HAuY899aJ/ana0LQt2bd3SbGVvyr/74Sfz9TcT3HVWy6TBjwxxbn5ntWBRAM+3tFA3IwWaGtlxJCb98pvtqvm9C3opwKHBMfvfdLmpGOry+cbbH7ruXipPrTt2b9favk52sN20ShgN4qvrrLLViqe6rc+RtuXGxkjqAqOkfxM7d2jrHtUlZvjr77jBPbXt+RdHmNatdnKvR00NrfeaurEMsu9xJXXXPfWko91yulZWbkPS/xTQ+XT018FavaayTa0a5t9K/T5nrbnABgb6HFDRtUjwXUSyLSvTfre9uMSobKWypUuYfdqUNe2blzGrbBBlzM+rzajvVpkRtkVENul/X650rTzULUatR9R9RK1AfBeZOQvXGe1zyO6Zu/Flc5wo+ySf4+47lDFLbKuS0RNXm89sQEZJLT+ablvajVkS5Rjk2bwF8t+Nm/d5cnYIbDYCuqG87Q77i429IVXquEe7hL636nrx7HPD3DaNh/HqS08G23dr29oc3fMwc9xJ/3LBDQUHnnn2xYwDlSoo8uJzjwbjLGhq2fq2P7cCEz5dcG5f163FP29rb5zL2z6t/7nqJrdq3LcTEgIbV113ix2v4ye3TUGJQXfdHPSb1SCo6sKy9/5HuvO7e9BD5sjDbXNl+0U8XTr15OPNgFuvCzYpCKOxN9T9w6fnnn7QHLDf3v7pPwGGhcHgqz/YGxe5ZErPPH6/6bJnh2Bzt732NPt262J62hYvSmpRcWiPA+0X67yByKZO/c2oO49PLw993LRskX8zdnD3/UzdunVcNyF9yb/ympvNU4/d63dPeXxhyCPueCkbNmCFgjOvv/y0HX+kicul66quTC3a5AVrtFKvo6HPPBQEeXbZuYX9Yt3UdLPXQkldjsKpMF9n4XJZRiAsoBtWH9hYGGqxoRtt3aD5dOB+Xc0hB+3jn9ruVY1cIOL6mwe6riJqlaCb+PA+wc52QX3+L7/4jITxg3RjqWP4X7h1g5cc2Pj3+afbVlvrEm76NQ5Ak3+6BlaqWCEIbDS167K90QrXLbzcZpcW5tTe/xd8ZuqX5Z1sEOJKTXVpb+7UYkOP/ji6odVzJXXl6XXs4UFxCgq03KmZue6/97gWL2oJ4fPqHDq039Xo5l/rvp84KaELgArRDae/EdXYSLqhVFIdXnolP5hygb3x1HX0STfN2u7Lfvq5V4KAit8n06OOOc0GYpR0837xeacmBJWaNmlot/xtgxvfuXorGJY8noLyKkW95nm5U/8f1Volyfi+B58OCt2ryx7m6CPyAs5aqdeiukRdY1uqKICigJbOzbcseNJ2M/JjSGxr/33Ra9m/BmRy0AF7mbtsix4fHFPQyc9MpHL+99aHwbHPOeMk09y+f3xSMFFBkjsHPepWqXuYgh56PW+M1ND+W3rhuepKWsoVr3PU8fpdM8C9l9VCdcbM2TboUdcFZ/Re869xZdB7zr//1lc/tfx8+ImhttXi1GDXIw870I1JEqxYz4IG/TztwAq2m0VeV4+Z89eZm59f4oIHbRqXMTvbwEdr+6gpXEusp6x0m7+1M6qEu5/c0qeKvbHPs9H+6j7SxXYBuWHIknTZ065TVxC1HPGpRYPSppbtAvPwG3mtPj63LTfiCGz4+tx2WhXTaJv8c9yrVVkbeCllnrDdZ5TuGb7UdG5RxgVlfB4eEZBASRgQQKD4CSxavNh1sdAYGv5PY1GoBUGPw08w+gXep8v+fa5fdI8vvvRq8PzZJ+4Pvmz6lbrxf/TBu/1T10oieJK00O+y84Oght+kG/twOieptYK27duta7DL99/n/TKnFSvsFxLfWkItQO4ccEPwBd1nqLtNHTc2h38+/tu8ft7+efjxStsSIzkdcnD+L0kK7ISDGtpXX9i7H9AtyDbxx0nBcvLCfy49PyGo4bfv1bVTwvgc3034wW8yr9lWIz7de/ctCUENv15je2jsCqUvvhzrV6c8nnbKCTkHNVSoAkA+qOEPUqfO1gk255yZ2nJFwQ21OFEaPeZrn9U9FubrLKFgniAQEtCAkD4tWJjfFWXiT78Ev05r8Ezd9CUnDb577pm9g9XhpubByn8W1P8+eVBkbdKAgj7pZjI5qQuKBifMNGBi8v65Pj/p+CNTPjMr2/Ns22bnoGjd9PmkYIbGGNBfOKjht+vmsdXOeYFX3RzOmDnLbzKdbSsLn778OrXbnIIHPnXt3N4vmi9CXUB6Ht49IajhdzrqiO7BmB7Tp+cFKvy2gh41gOQ9A65x56OWHuGWMj6fWjn4NOmXX/1iymPUa55S0D8rcrGeaFvI+dYWCkwcZd2Sk1pY9LEtEfygrwpIKOnm3Af/FMxQYMIHNcJlKK/KVn51W/Ep3OpGAcJwUMPvo8CVvHwq6L3k94n6ePKJPYOghi9Dr9Oue+7un9qAWup7MdiY5YIGGL3+loFBUENmChqqZdaGJrV+OL17RRfM8HnVdeLryavNk+8ud7OhHPPfBeb+EcuMWkRsSJo4bU2w+2kHVkwIavgNmnVF43dkkzrsmNcVJnnfg9qVC1b9MW/D6hhkLISFMw6umBDU8EUe2cm2MGmU/3u8ps0lIZAskP8KSd7CcwQQiE1Av+Qf26vveo9/2y3Xmq5d8v8R1mCXvnuIbkgzzZ6hQT910//Tz5PtOBmZb6zV+iI5KTDSpHFD111EwYmaW9VI3sXNvOJXrrTNg3361jZB9qljh/ZuhHz/PPyobjM+jbctPnrZrjTJSfXXeSQnzfThU+eO+V+2/To9hl3UrSdTOjAUAEneRwET391kgg3e+IDKqE8+D3ZVq4h0yf0aardpjAu1vPnT/sK5TVITd+ULtxRJV06269q32zXtrpohx6c2oRsjv06PO+3YzHZrmhdeZWd6KNzXWULhPEEgg4CNSQbp50n5v7C23mWnlJt9v6N+7fVdKtSEXzeBmnklOTVuVD95lXte2w6I6VO4xYhfV5SPGhQzPJZH+Nh1atcMns6b/5ft6pL/ORhsSLMQ/qVbm9UawCe1TtGAoLoJVteR5O4o/uZWN4StbUsSnyb+ONkv2hmymgTL4QXXqsXO7vTVX9+6G3q1xChotq5w3oKW1aJRg0b7FP73x6/zj0V9zQuy/unn/NfzbrvunPH1rMFD9RdOU3+bHjx1LWeqVA6ehxf072W/S84Kr3LLP4daK7Sx76VMSd0/Xhv5rtvsAymZ9o26Xt2WMs2Yo5ldfFq4KPvWCT5P8uMLtuuVb+Wi7zHnnnlSxmMn5033/NA9ypn9dy1rPp6wynXlmPJn4o33qjV/m7e+Xmne/Wal6W8HyGxWL7tbsIm/5wc21DUjU+q4U1nz4scrMm0O1qt1Rrqkt021SiXc1LWa5SSupAFIM6XOdtt424JFafKMtWbH7dKfS6b8rN/8BXhFbP7XmDPcDAXU5eLhwXemTBs6336h9Uk3zDu06uTURkfYAAAjYUlEQVSfpjz6riwaZ0FTrWp8jOSULmgR3sdPBxtep+XwF8vwtlmz839J1ACk77z3UXhz2uUvvx6fdr26c6wv+elgk/fTtITZpGZNGmXcTTOJ+BRuVTJt2h9+tel+2PHBcvKC99f6CT/8mDawoelvCyPVqpn/hTBTefrVOV3yzYHD2wr7dRYum2UEwgLhYEK1UCBTn1k+1V/PeBV169R2Aydqf5WXLrChKTHTpQq2WbtPummOM21rW7NlSuHxEtLVU+NoaKwMtXTRmCNqzq+pqJNvtpPL37NjO/PK62+7/RSw8GOchLuhaNwO3ZD6FL5mt9lBSzMl30JB23/97Y8NCmwoSKWxOn6YONnMtFONr1huB220QfT1nU+4LhvrmkexDr+eN3T8lYWh2YA088mGpkV23CufMplou4JcPi1ZvNQvFupjrdAxkguuGHovunlok3fYwOfqWubTBeeckrbFlt+e7aOmS9WUr/pbtvJv89P0NWbcL2vMx9+vMvMW5bWCUEuOyx9bbAacXtU0sd1T1pdUhpICD9vUyA/aJefTdLLZpAZ2xpRMqVL5kjawsdaOWRLPZ53GD6laMRTBTqpo41D3lJ/lEsM4IElV4mkxE8j/l6iYVYzqILAlC2hMhDdfH5pA8P6HH7vpOLVyyVLNTZ960xv+cqT9wjfPep4pzZo1J21gI9P+UdcvWJB/M6IysqnflKm/Rj1cTvnU4qVCaHC15MLUn1zXSa1rNNipT7Nmz/GLWZ2fdtbgnJtSKu6vs03JkroWLKBxH3yqXi2/W8rSpXl9rbVtK9uSoaBUs2b1ILCxbFl+vnAetSAo7ilKFRXkeNX+yv7eB59GOr3d7dgKCmwoqYuJD2yEu6Eo+BFOahXjUzh44dele1SgJNuksSw0de2GBDHSlV3Y1zwX6/DrueZW1dNVN+O6sLde6xuafH61bCqoS5W89GOGH6h2Q4+Tzf6FfU0yHVOvS986Sd1z0nVDy5Q32/UVy+XPgNLHTlH6pR3k87YXlxq13FBwQy03mtStuN7iQg2Q7OgxtjtthhzZxl1LZiogQ7lFubr2eqbLrV09PygzI8buMkVpwrE2TIDAxoZ5sTcCRSJQtUoV1wUgfDC1EHjy6aHuJlqDb75gx9LQ4JvhlNzqYuiz+YNohvfTskaQ9/2TM83KkZwn1+fVq+e3CtEMHOef0zdjkb5+GuAtjqSgi26CEn4lClVEvxgqqKHUvHmTYEsdO3OJX6+BS9P1ddbOatatL3HaHh5cNCioGC8U99dZMaajahsgoBuPcJN3jaXhU+XK+TcEc+b9VeBsQbPnzPfZjMaj2JKSpqoNBzVa2K5l6p5Tw34W67NNAy2++8FnwQCpyTby0kCsGlwx3B3Fj8ugG93kgRrVIsY38de4DpluVvMCE/oMLGHC1za5DuHnk3/5NWHmELVuaN60oetC4M9nhu3a98prb4WzFclyLtZVqlQK6qixXDQORrYp3HIy3Tgw6yvHXy+931atWp2xu5Oul7+ufjag9ZUd3p6uJVF4e1Eu695e57DORhi2rZv6I9HGqItmMbn8mErmxn8G+Rw3Jb+LSUHHa267rGisDgVDZsxba+rVzL+5D+eb+md25YXzFOVyNo1AZi/Ia9WSqV4z5+d379lu68ytVzLlZ/3mL0BgY/O/xpzhZiJQunQpc8O1l5teJ+f1kb3uptvtDCIHJdx4bxUa70ItDvbbp2uxOvutt87/stag/nbFrn7JWJMmT7F9x/MHogtv//nnX4Knre0sIz5ta2ca8C04FIzSlLWbWyrur7PNzXtLPZ/X33gvOHXd+KqFlE/hbil/zPjTze7htyU/agwbn6qFWn34dZvzo1o3+NS3z3EpM5to25g0A4P6PHrs0qmdC2zoxlZdWerZX7j9DXS6aTGr2jEe/A2wfg0vqHtD+DjZLI/7dmKwW9fOu9upvg8OnvsFDQoZR8rFOjxe1O92Bh9NW5xt0tgrPv3+e96Aov55No8aoNdfrz9t600FvtIlPwOOtlWulP9eDDcAWJqhRZTyzJ+ffasc7b8xk1qm3H7zFTkfQsGG5z5cblsP2W4iW5U0B9guKAWl8Ewkc7McRHTH+nmBDZX72Q+r7SCh6QMboyZkHi+soDrlvC30Ali8zEJkSOsLWiibWrMsWLrOVK+UPmgRHrekmZ3ylYRAskD6V07yXjxHAIFiIXDg/t3stGttXV3UouD+Bx9PqJeCH37ASW3X4KCZ0hw7qrimQJz556xMuxT6+tatWgRlfjTqMzuQX+YvoNP/mOHqtyFNlIPCC2nh1dffyFjS6yPzfxHcuUX+l9CuoalhwwOJJhe0yPb1l7/+NBjnppSK++tsU7KkrukF1Drgo4+/CDZ226tDsKyFnUKtpPzUngk7/PNEv/D77hAaMyjTWDLp8hb2uiVLlxV2kQWWp1Zv/mZUv+pnulnW2BsFJeXzY2hozKOvvvku2D1dYGPH0LUpqGy1iNPApPrLtluJZg/xKTxjjV+nR712ijrlaq1pd31Sa5g1tqtEuvS9nZ78pv73mhtvHWRn1BrndtGAob5loKbC9dc8Ob9aGd56x2CXf+iwEcFmTSXrk2+J45+HH8Mz44Tz6LXljz9nTuJA0+H8k+x7sSiSbzFZFMeyDS7NyDErzbBPV5j7Xl8WjKOR6dgTfs0PPtSoHIoIZMpg14cH+3zm/eVmwq+prw0NWPra6PwuYAUUV+ibNCaG7y4zw051mymlq3e6fd8btyrdatcN54Px+dua10sf4EmbmZVbjACBjS3mUnOim4OAmvRed/Vlwanccts9bkaNYIVdOPbow4OnJ/Q+0yiAkZzUlWXHXTqbNu27mcOP6p28eaM915gVxx1zpCtf40r0PfvfaW/qhzw/zLRu183Vr//tgzZafdZX8D33PmzefPv9lN009W44qNQ6NL3gYYd0D/a/+NJr0k7nqqBG90OPc+ena5DNWCNBocVkoTi/zooJEdWIILDYdu9SN4KHH38+yL1D88Zmt11bBc+10LxZI9eUXMszbYuMYcPf1GJC0vvs/oeeCdZ16pAXFA5WFMFCubL5I/yHZwspgkO7roa+y8Aq283Aj6UQPvbwEe8Ev9aH14eXNYDwbm3z/NVi4vMvxrrN9WzrtK3SjAexx+5tguyaReNH28ojOSmooRv0G+x0m/rTTXc2aet/pp/WvvNsF6TkpKDG199MSF690Z+rW2cu1urO47uUaHDXp58bnlJnDfL56BMvuNYyCl7U366u20dBJx+0UoBo0ANPui4l4QLUDeTBR58zat2k1jbhGUY62HFUfProky/SBoZ0Dd9+72O/m+lopxH2Sd9LfKscXcfJU37zm4JHBUz0Pt1YKdzdSZ8h4QFs0x1Twc4hL7xmrrh2gHl26KtB8DPdvgWtU2giPE3qnS8vNYuWpR94c64dPHTw//J/zGnduExBRQfbdm5Y2nRtlf85cs3Ti80tQ5e4mVdG2KDKdc8sMbcP2ziDuQaVKGBBBtvVygsyaIDU739LDbwoIPH7nOx+wHnKTo8bnuLWH3rIB8vNz3/kla1ASsNtaLHhbXjMF+BVkW/BEgKbhMDu7Xc1PQ7a34x84x1XX93433X7jUHdFTj49PMvjWYd0YwnuoE+8ogepuMe7dy4Dl+M+drcPeihYP9LLjo7WC6KhZtvvMJNc6rWJAoQHNbzRHPwQfuZXVu3MpqmUC0hXh4+MqhK31NPDJbjWFDXH003u3fXzu7wH4761Dz73LCgKncOuMH20d0meN7UzqQy6K6bzXkXXeHWHXPC6S7Y1LnTHm7U/x/sL253DhwcBDNUdrqpXoMCi+lCcX+dFVM2qmUF1Jf/xZf/F1j8bX+LW2Snb5xrb1R14xVOamVxyolHh1e5Zf1CfP5Zp5g7Bj7ifu0f9ekYo1+rdYOnZv1qqTF23PfBDcsOzRqb/ffZM6Wcjb2iTp1awcClQ18aYX6zsyapW02rljskdCPcWPXYaYemZty3PziHmwfcb/8d2NU0a9LQ/Dlrrhlru6nIKZukAUJHj/nGWauFhVKXzu3TZlVXlZ6HH2hefjWvVdsDjzzrrkuLHZuaKrY7kbpavPv+p8G10fSl2U71usvOOxi1WlC678Gn7fm0tWMUNbPjIa0wP9rugb4VQ9qKbeSVuVjrxvyCs09xLSoUnBg7boJreaEZZxSE0Ll9Mz7vOuo01EpD3Xx8OvG4I2zrv5nu31AFF663waJ2dtpYBUx+nzbDvQZ89yG9d8ItbTSt79FHHmReeiWvheKjT77gunbt3KK5HamyhJ15ZpKbUccf69CD9zXbN6jnn7pHTZ07Y2Ze608FVnp07+b2UReXogg2yU8DeiuYqXT73Q+bTh12s3ZbpQRFtf3rsd8FATq9rptapz1CAR7tk23q3r6ca7Gh/SfYm/rT7lpoetjZOhrbGU/q2llMZtlxIzQ1qVpUqOuKkm7M/69L+bwnWfz/wiMqmZl2sMxJM9a4Mkb/uNroL5yO6FjeBTvUnaOo0052CtnfZucFLq5+arE5fu8KprmdilVdU1RPtSjZkHTlE4uNpq/dtUlps8Ke5uc/rHK2voxLjqpkytBgw3PwGBIgsBHCYBGBTUXgqn4XBYGNp559wZxub/79AJT6B14327PsFHjvf/iJC27cdc9gc1eak7vw/DPMMaEWHml2KfRVGnjypecfNd0O6Olu7r/4cmzaVg068JCnBhsFCuJIClacfNKxRq1iFMgIBzN8ffr0Pt6cfOKx/mnweMJxR7kbtFsHDHQDiT76xBD7S9uQYLtfULeh/v+92j/dpB6L++tsk8LcAiurQMT6UjvbSqDXsYdnnKlBYwH869TjzWB746w09ddp7i+5XN24nXH6CRkHsUzevzCfd+nUPrjZ1q/EH3/6pfnYfGmDMie7QTkL81jpyup+wF52XIzJLpikG9433v7IvGE+CnbVr/2tbLBAQaCCkm5kwzeO2rddUiuacP5uXTvaFhULjFoA6EZdwRX9JSddGw0wmm1q22ZnW+YYdxMtT72Okl9LGnsjeV225eeyX67WsjjnjJNciwvVQ9PG6i85adrVZDO1Frn4vFNtK5j73FS+usF//6PP3V84v673WX17BQOH+2177bmHmwb4vQ8/c9dLXYjSdSPqbANcB+zbxWcLHo845ADb9XVK0K3o9f+9F2zzC212aZH2NeC35/q4d5c9jFoIKem1/r+3PnDLya29tHJe0ngf+lElaqpdraTpf2oVc/2zS9wUrwosvPJZ5m4h1SqVMDefUsWsbwaQcH0UCLn+pMrmsbeXu9lUwts0+8qpB1Yw++1azgU2wtuKarnP/hXM+CmrzUzbFUXBG3WZSU6dWpS1Y4QUHODY3k5FW936jJ+6xnxip8jVX3I6qnN5o7JICKQTsG8VEgIIFDeBsmULbqLYvFkTo5tqn+64+36/6B7LliljHnvoHqPARXjAPb+TWm+8PPRxc3W/i/2q4FHNjrNNpUqtPzaarjwFDd549bmMQRUFW0Z//IbRmCKZUukM9SzlO3vajBoLIl3SKPw+hffXOl9fXYN/X3iWefiBO40GYg0nmf7n0vPNzTddGV6dsKyWMHfcdr39xaxhwno9abh9fTPwzpvNC0MeSZlSNlyfcD1TClnPimzK8f2iVVR4OVx0Jmftk8vrLHwMlhGQgJriq3uDbpxuuOoic3KvozIGNbyYxiY48/ReCb9e+216TXewTeb1S7gfI8Jv02Om13x4n/xPCv3Kmv7zJLx/8rICAmf1PTFyECP8GeA/m5KPoeeJ7/f8r3ZqPXHlZeeknXWkcaMG5rKLz0iYOrwgk/C0rmpx4rtepKuP1h11RHdzWI/9gi4W4f0029WRhx1oLrvoX+stJ5yvfPly5tIL+5p2bXdJuaYKvJxx2gl2W363pVIaBCGUCjo/v1vUa14Y1s3tDDTnntHbaLaX5KT3h17P/S49O+30pDr/S62nrk1y0utfrZau7ndextfiEYceYI60f75LTLgMXa9DDtrHHHtUj/DqYDkvsHKaO0bye02Dm55nA3lNm2wf7F8y9O90sNIuFHR9wtvS5d93707mmJ49ErrZhMsOL6vlkq+nHjvunls3NQ3w+eD51UzbpmWC8SbCx9Ny2dIlTLtmZcwD51YLum6E9/FfS/xjeJuWK5UvYc47rKJ5+eoaZvB51Vww5clLqpnn/lPd7G+DGkprM0w9En4bhD9TXKbQ/0r/83YplakSoX3Di+XLljD9T6tqWjcq7c4zvG1rG/i5sXcV03L7/O+L4fqE99Xy1b2quBYfyS8R+Z3QrYI5ab8KyVl4jkAgUML2uyv6NkvB4VlAoHAELr/8cldQ//79C6fALEuJ67hZVs/tpoEpZ82e7ZqoVrRjXGhq1zgH0Euu+4oVK8xM24R18dKl9stadXeDUtAX+OT8RfVcMyvMnjvXNqWubL90bmvKlMn/R7qgOugjVmNoqE+0WjnIv4qdNWBzS8X9dba5eXM+qQIat0GDDa9evca+xyq5m7/i9FmiqTRXrV5tb95KGH0WF3VSywnNeqH3qro3KEhQFEmfgRrzYOHCxe4zsFatGoV2/nPnzbet4pbZrizVXIuSojifbI5RGNaa3UWtXuRXp3bNDfp3W681vRc0rkpNOw6Kgh7ZJh1P43ksWJA37olmEtLMKfr3K9ukbi/qcqaghrofFXXSeWtKdf1A4ae1T66DrtFM+36oW2frAgMqyfmyea4ZQCbbbiMaV2PraqVMMzvQZa2qiUG2bMrRPstX/W3m/DODSpUKJUyNyunLmT53rTnnvrxrpkDHuTYIEldSXVbYxhYKaqiFyvpSzxv/ci091GJj4FlV3e66OZ311zp37ipHf8nBjvWVy/YtTyC7b+ZbngtnvIkJaOoujSK+cuXKDfrHP5fT1LGUdOzinNRqod62dd1fcaxneftLUKNG+b/kFMc6qk4aByPKWBj6MqhpbsNT3RbXc8ylXsX9dZbLuZF30xCoWLFCkYxbEVUj7yar4NZ4UcvOJp9+8Q6Py5BNnsLYR5+BGvckPKVpYZSrMmrV3Mr9FVZ5hVVOYVgr+FVxu2gBML3W/ICeG3pOul4KZOgvaqpTu1bUrIWSr0KF9Y9foWukVjYbI6mbSe3qhdNdQkGS8x/IC1io1cKgs6uabezYHeGk7h8auNSnPXaM73NGdfCDifr6RHlUOETnmXyuUcoiz5YjULzvyLac68CZ5ihQv359M3XqVDN27FjTsWPHHEvLLruOpaRjkxBAAAEEEEAAAQS2DIEPv11l7nolP5hQ2Gf96rU1XJFqxbCjHYjzx+lrjMbvuGDwIrPHDmXcNLCVbQuO6XPXmVc/X+HG91AGBT92sV1CfDr8+ujjh/gyNsajP79MZWdb7/WVk6l81m+eAvmv/M3z/DirLUSgQ4cOLrAxfHjeFGlt27bdaC031FJDQQ1/LB2bhAACCCCAAAIIIIBAYQuoW8m1dlpXTae6wnZN+ei7Ve4v+TjqrnFznyqmXJn1d/9IzstzBDYHAcbY2ByuIufgBEaOHGlGjRpVpBpdu3Y1PXqkH0yrSCvCwRBAAAEEEEAAAQQ2SwE7NI6bbUQzhfgxN3SiGndCXT92blja9N63gtFAnptaOvG2BWalndZ1h+1KmZtOjt4FalM7b+pb+AIENgrflBJjFBg3bpwZPXq0mTZtmhtzY2NURWNqqPuJWmq0adNmYxyCMhFAAAEEEEAAAQQQSBGw47uaWXbsDU1esrUdz2PTC2WknBIrECgUAQIbhcJIIQgggAACCCCAAAIIIIAAAgggEIdA4rC6cdSAYyKAAAIIIIAAAggggAACCCCAAAIRBQhsRIQjGwIIIIAAAggggAACCCCAAAIIxC9AYCP+a0ANEEAAAQQQQAABBBBAAAEEEEAgogCBjYhwZEMAAQQQQAABBBBAAAEEEEAAgfgFCGzEfw2oAQIIIIAAAggggAACCCCAAAIIRBQgsBERjmwIIIAAAggggAACCCCAAAIIIBC/AIGN+K8BNUAAAQQQQAABBBBAAAEEEEAAgYgCBDYiwpENAQQQQAABBBBAAAEEEEAAAQTiFyCwEf81oAYIIIAAAggggAACCCCAAAIIIBBRgMBGRDiyIYAAAggggAACCCCAAAIIIIBA/AIENuK/BtQAAQQQQAABBBBAAAEEEEAAAQQiChDYiAhHNgQQQAABBBBAAAEEEEAAAQQQiF+AwEb814AaIIAAAggggAACCCCAAAIIIIBARAECGxHhyIYAAggggAACCCCAAAIIIIAAAvELENiI/xpQAwQQQAABBBBAAAEEEEAAAQQQiChAYCMiHNkQQAABBBBAAAEEEEAAAQQQQCB+AQIb8V8DaoAAAggggAACCCCAAAIIIIAAAhEFCGxEhCMbAggggAACCCCAAAIIIIAAAgjEL0BgI/5rQA0QQAABBBBAAAEEEEAAAQQQQCCiAIGNiHBkQwABBBBAAAEEEEAAAQQQQACB+AUIbMR/DagBAggggAACCCCAAAIIIIAAAghEFCCwERGObAgggAACCCCAAAIIIIAAAgggEL8AgY34rwE1QAABBBBAAAEEEEAAAQQQQACBiAIENiLCkQ0BBBBAAAEEEEAAAQQQQAABBOIXILAR/zWgBggggAACCCCAAAIIIIAAAgggEFGAwEZEOLIhgAACCCCAAAIIIIAAAggggED8AgQ24r8G1AABBBBAAAEEEEAAAQQQQAABBCIKENiICEc2BBBAAAEEEEAAAQQQQAABBBCIX4DARvzXgBoggAACCCCAAAIIIIAAAggggEBEAQIbEeHIhgACCCCAAAIIIIAAAggggAAC8QsQ2Ij/GlADBBBAAAEEEEAAAQQQQAABBBCIKEBgIyIc2RBAAAEEEEAAAQQQQAABBBBAIH4BAhvxXwNqgAACCCCAAAIIIIAAAggggAACEQUIbESEIxsCCCCAAAIIIIAAAggggAACCMQvQGAj/mtADRBAAAEEEEAAAQQQQAABBBBAIKIAgY2IcGRDAAEEEEAAAQQQQAABBBBAAIH4BQhsxH8NqAECCCCAAAIIIIAAAggggAACCEQUILAREY5sCCCAAAIIIIAAAggggAACCCAQvwCBjfivATVAAAEEEEAAAQQQQAABBBBAAIGIAgQ2IsKRDQEEEEAAAQQQQAABBBBAAAEE4hcgsBH/NaAGCCCAAAIIIIAAAggggAACCCAQUYDARkQ4siGAAAIIIIAAAggggAACCCCAQPwCBDbivwbUAAEEEEAAAQQQQAABBBBAAAEEIgoQ2IgIRzYEEEAAAQQQQAABBBBAAAEEEIhfgMBG/NeAGiCAAAIIIIAAAggggAACCCCAQEQBAhsR4ciGAAIIIIAAAggggAACCCCAAALxCxDYiP8aUAMEEEAAAQQQQAABBBBAAAEEEIgoQGAjIhzZEEAAAQQQQAABBBBAAAEEEEAgfgECG/FfA2qAAAIIIIAAAggggAACCCCAAAIRBQhsRIQjGwIIIIAAAggggAACCCCAAAIIxC9AYCP+a0ANEEAAAQQQQAABBBBAAAEEEEAgogCBjYhwZEMAAQQQQAABBBBAAAEEEEAAgfgFCGzEfw2oAQIIIIAAAggggAACCCCAAAIIRBQgsBERjmwIIIAAAggggAACCCCAAAIIIBC/AIGN+K8BNUAAAQQQQAABBBBAAAEEEEAAgYgCBDYiwpENAQQQQAABBBBAAAEEEEAAAQTiFyCwEf81oAYIIIAAAggggAACCCCAAAIIIBBRgMBGRDiyIYAAAggggAACCCCAAAIIIIBA/AIENuK/BtQAAQQQQAABBBBAAAEEEEAAAQQiChDYiAhHNgQQQAABBBBAAAEEEEAAAQQQiF+AwEb814AaIIAAAggggAACCCCAAAIIIIBARAECGxHhyIYAAggggAACCCCAAAIIIIAAAvELENiI/xpQAwQQQAABBBBAAAEEEEAAAQQQiChAYCMiHNkQQAABBBBAAAEEEEAAAQQQQCB+AQIb8V8DaoAAAggggAACCCCAAAIIIIAAAhEFCGxEhCMbAggggAACCCCAAAIIIIAAAgjEL0BgI/5rQA0QQAABBBBAAAEEEEAAAQQQQCCiAIGNiHBkQwABBBBAAAEEEEAAAQQQQACB+AUIbMR/DagBAggggAACCCCAAAIIIIAAAghEFCCwERGObAgggAACCCCAAAIIIIAAAgggEL8AgY34rwE1QAABBBBAAAEEEEAAAQQQQACBiAIENiLCkQ0BBBBAAAEEEEAAAQQQQAABBOIXILAR/zWgBggggAACCCCAAAIIIIAAAgggEFGAwEZEOLIhgAACCCCAAAIIIIAAAggggED8AgQ24r8G1AABBBBAAAEEEEAAAQQQQAABBCIKENiICEc2BBBAAAEEEEAAAQQQQAABBBCIX4DARvzXgBoggAACCCCAAAIIIIAAAggggEBEAQIbEeHIhgACCCCAAAIIIIAAAggggAAC8QsQ2Ij/GlADBBBAAAEEEEAAAQQQQAABBBCIKEBgIyIc2RBAAAEEEEAAAQQQQAABBBBAIH4BAhvxXwNqgAACCCCAAAIIIIAAAggggAACEQUIbESEIxsCCCCAAAIIIIAAAggggAACCMQvQGAj/mtADRBAAAEEEEAAAQQQQAABBBBAIKIAgY2IcGRDAAEEEEAAAQQQQAABBBBAAIH4BQhsxH8NqAECCCCAAAIIIIAAAggggAACCEQUILAREY5sCCCAAAIIIIAAAggggAACCCAQvwCBjfivATVAAAEEEEAAAQQQQAABBBBAAIGIAgQ2IsKRDQEEEEAAAQQQQAABBBBAAAEE4hcgsBH/NaAGCCCAAAIIIIAAAggggAACCCAQUYDARkQ4siGAAAIIIIAAAggggAACCCCAQPwCBDbivwbUAAEEEEAAAQQQQAABBBBAAAEEIgoQ2IgIRzYEEEAAAQQQQAABBBBAAAEEEIhfgMBG/NeAGiCAAAIIIIAAAggggAACCCCAQEQBAhsR4ciGAAIIIIAAAggggAACCCCAAALxCxDYiP8aUAMEEEAAAQQQQAABBBBAAAEEEIgoQGAjIhzZEEAAAQQQQAABBBBAAAEEEEAgfgECG/FfA2qAAAIIIIAAAggggAACCCCAAAIRBQhsRIQjGwIIIIAAAggggAACCCCAAAIIxC9AYCP+a0ANEEAAAQQQQAABBBBAAAEEEEAgogCBjYhwZEMAAQQQQAABBBBAAAEEEEAAgfgFCGzEfw2oAQIIIIAAAggggAACCCCAAAIIRBQgsBERjmwIIIAAAggggAACCCCAAAIIIBC/AIGN+K8BNUAAAQQQQAABBBBAAAEEEEAAgYgCBDYiwpENAQQQQAABBBBAAAEEEEAAAQTiFyCwEf81oAYIIIAAAggggAACCCCAAAIIIBBRgMBGRDiyIYAAAggggAACCCCAAAIIIIBA/AIENuK/BtQAAQQQQAABBBBAAAEEEEAAAQQiChDYiAhHNgQQQAABBBBAAAEEEEAAAQQQiF+AwEb814AaIIAAAggggAACCCCAAAIIIIBARAECGxHhyIYAAggggAACCCCAAAIIIIAAAvELENiI/xpQAwQQQAABBBBAAAEEEEAAAQQQiChAYCMiHNkQQAABBBBAAAEEEEAAAQQQQCB+AQIb8V8DaoAAAggggAACCCCAAAIIIIAAAhEFCGxEhCMbAggggAACCCCAAAIIIIAAAgjEL0BgI/5rQA0QQAABBBBAAAEEEEAAAQQQQCCiAIGNiHBkQwABBBBAAAEEEEAAAQQQQACB+AUIbMR/DagBAggggAACCCCAAAIIIIAAAghEFCCwERGObAgggAACCCCAAAIIIIAAAgggEL8AgY34rwE1QAABBBBAAAEEEEAAAQQQQACBiAIENiLCkQ0BBBBAAAEEEEAAAQQQQAABBOIXILAR/zWgBggggAACCCCAAAIIIIAAAgggEFGAwEZEOLIhgAACCCCAAAIIIIAAAggggED8AgQ24r8G1AABBBBAAAEEEEAAAQQQQAABBCIKENiICEc2BBBAAAEEEEAAAQQQQAABBBCIX+D/Ad0gVJf2yg7sAAAAAElFTkSuQmCC;" vertex="1" parent="1">
                    <mxGeometry x="246" y="176.62" width="568" height="406.77" as="geometry"/>
                </mxCell>
            </root>
        </mxGraphModel>
    </diagram>
</mxfile>